<?xml version="1.0" encoding="UTF-8" standalone="no"?>
<svg
   xmlns:dc="http://purl.org/dc/elements/1.1/"
   xmlns:cc="http://creativecommons.org/ns#"
   xmlns:rdf="http://www.w3.org/1999/02/22-rdf-syntax-ns#"
   xmlns:svg="http://www.w3.org/2000/svg"
   xmlns="http://www.w3.org/2000/svg"
   xmlns:sodipodi="http://sodipodi.sourceforge.net/DTD/sodipodi-0.dtd"
   xmlns:inkscape="http://www.inkscape.org/namespaces/inkscape"
   id="Layer_1"
   data-name="Layer 1"
   viewBox="0 0 600.00001 600.00001"
   version="1.1"
   sodipodi:docname="SWK-Magdeburg_schwarz.svg"
   width="600"
   height="600"
   inkscape:version="0.92.4 (5da689c313, 2019-01-14)">
  <metadata
     id="metadata41">
    <rdf:RDF>
      <cc:Work
         rdf:about="">
        <dc:format>image/svg+xml</dc:format>
        <dc:type
           rdf:resource="http://purl.org/dc/dcmitype/StillImage" />
        <dc:title>SWK-Magdeburg1</dc:title>
      </cc:Work>
    </rdf:RDF>
  </metadata>
  <sodipodi:namedview
     pagecolor="#000000"
     bordercolor="#666666"
     borderopacity="1"
     objecttolerance="10"
     gridtolerance="10"
     guidetolerance="10"
     inkscape:pageopacity="0"
     inkscape:pageshadow="2"
     inkscape:window-width="1920"
     inkscape:window-height="1007"
     id="namedview39"
     showgrid="false"
     units="px"
     width="800mm"
     inkscape:zoom="1.01"
     inkscape:cx="136.13861"
     inkscape:cy="338.08206"
     inkscape:window-x="-9"
     inkscape:window-y="-9"
     inkscape:window-maximized="1"
     inkscape:current-layer="Layer_1"
     inkscape:pagecheckerboard="true" />
  <defs
     id="defs4">
    <style
       id="style2">.cls-1,.cls-3,.cls-4,.cls-6,.cls-7{fill:none;}.cls-1,.cls-7{stroke:#231f20;stroke-miterlimit:10;}.cls-1{stroke-width:20px;}.cls-2{fill:#df5454;}.cls-3,.cls-4,.cls-6{stroke:#fff;}.cls-4{stroke-width:0.45px;}.cls-5{fill:#ebb847;}.cls-6{stroke-width:2px;}.cls-7{stroke-width:6px;}</style>
  </defs>
  <title
     id="title6">SWK-Magdeburg1</title>
  <ellipse
     style="fill:none;stroke:#ffffff;stroke-width:20.26804733px;stroke-miterlimit:10"
     class="cls-1"
     cx="64.172485"
     cy="300"
     id="circle8"
     rx="45.98093"
     ry="47.096626" />
  <ellipse
     style="fill:none;stroke:#ffffff;stroke-width:20.26804733px;stroke-miterlimit:10;stroke-opacity:1"
     class="cls-1"
     cx="535.82751"
     cy="300"
     id="circle10"
     rx="45.98093"
     ry="47.096626" />
  <path
     style="fill:#df5454;stroke-width:1.03739929"
     inkscape:connector-curvature="0"
     id="path3609"
     class="cls-2"
     d="m 535.66728,300.44103 c 0,-129.81086 -98.0299,-235.07394 -218.98018,-235.07394 v 235.07394 z" />
  <path
     style="fill:none;stroke:#ffffff;stroke-width:1.01340234"
     inkscape:connector-curvature="0"
     id="rect3824"
     class="cls-3"
     d="m 395.30128,171.76632 c 17.84364,-0.58461 34.78609,-0.57435 51.42815,-0.42051 a 18.16407,18.604808 0 0 1 17.85366,19.26121 m -10.57402,-26.86108 a 18.584627,19.03557 0 0 1 9.27229,16.53305 q 0.0701,13.74335 0.50066,27.69183 a 18.62468,19.076595 0 0 1 -13.5079,19.22019 m 5.56738,-3.33328 a 19.455782,19.927863 0 0 1 -16.87236,9.31266 c -18.48449,-0.42051 -36.25804,-1.02562 -54.07165,-2.05125 m 22.30956,2.84098 c -6.24828,0.22564 -12.58668,0.38974 -19.02521,0.50256 a 18.184097,18.625321 0 0 1 -18.43443,-18.90224 c 0.0701,-9.08703 0.12016,-18.18431 0.25034,-27.19954 a 18.093977,18.533015 0 0 1 9.30232,-15.92793 m -17.02255,15.49717 q -0.12016,-4.22557 -0.16022,-8.43062 a 18.774879,19.230439 0 0 1 5.63747,-13.88694 20.026538,20.512468 0 0 1 13.91845,-5.86657 c 16.57196,-0.26666 33.84485,-0.55384 51.49824,-1.13844 m -38.34081,6.62553 a 472.27583,483.73528 0 0 0 49.25527,-1.4769 21.027865,21.538091 0 0 1 13.88841,3.84609 17.322955,17.743285 0 0 1 7.11943,11.07673 m -15.88104,-10.88187 a 19.155384,19.620176 0 0 1 8.51128,16.21511 c 0.0801,9.12805 0.3805,18.22533 0.85112,27.28158 a 17.803592,18.235584 0 0 1 -4.41585,13.22029 16.02123,16.409974 0 0 1 -11.80564,5.51785 m 19.26553,-11.64082 a 18.784893,19.240695 0 0 1 -14.86971,7.63064 c -17.79358,0.26666 -36.28808,1.18972 -55.18312,2.63585 m 13.79828,1.21023 q -9.54264,0.18462 -19.31559,0.082 c -10.39378,-0.10256 -18.89504,-8.96395 -19.11533,-20.10222 -0.19026,-9.57932 -0.44059,-19.28172 -0.71095,-29.07642 a 20.937745,21.445785 0 0 1 6.00797,-15.82537 m -3.32441,22.96371 q -0.0901,-4.54351 -0.12016,-9.12805 c -0.0701,-10.25623 8.46121,-18.64583 19.19544,-18.35866 17.93376,0.47179 36.33815,0.97434 54.93279,2.17432 m -48.61442,1.02563 c 17.24285,0.24615 33.70466,0.18461 49.9562,0 a 18.083964,18.522759 0 0 1 18.39437,18.8407 q 0,1.72305 0,3.43584 M 450.6346,162.18699 a 19.455782,19.927863 0 0 1 7.60007,15.29205 c 0.16021,9.23061 0.1502,18.20481 0,27.09697 -0.12016,10.34854 -8.72155,18.54327 -19.36566,17.98943 q -8.59138,-0.45127 -17.14272,-0.95383 m 23.03052,6.46143 a 18.16407,18.604808 0 0 1 -7.06937,1.63074 535.3394,548.32904 0 0 0 -56.14439,4.1948 c -6.26831,0.8205 -11.72554,-1.67176 -14.77959,-5.79477 m 22.02919,1.02562 -2.71359,0.13334 c -10.80432,0.51281 -19.42575,-7.69218 -19.71613,-17.79457 -0.25033,-8.68703 -0.50066,-17.30227 -0.84112,-25.73289 a 15.250209,15.620244 0 0 1 4.70624,-12.0921 m -3.00398,8.94343 q 0,-0.89229 0,-1.78458 c 0,-10.95366 8.34105,-19.63043 18.51453,-19.6612 15.57064,0 30.79081,0.15384 45.75063,0.24615 m -45.53033,2.82046 c 18.40439,0.54358 37.5798,0.81025 57.23584,1.3128 a 21.338276,21.856035 0 0 1 20.65738,20.33811 q 0.22029,3.25123 0.45059,6.52297 m -9.45252,-24.16369 a 19.195437,19.661201 0 0 1 9.18217,16.40997 q 0.10013,13.51772 0,26.38929 a 16.151403,16.543305 0 0 1 -5.55737,12.50235 17.403062,17.825335 0 0 1 -13.37773,4.18455 q -10.93449,-1.16921 -21.82892,-2.61534 m 26.7154,0 a 19.025211,19.486845 0 0 1 -6.47859,1.34356 c -19.17541,0.4923 -38.21063,1.11793 -57.07563,2.33843 a 17.312942,17.733029 0 0 1 -12.94716,-4.56403 15.480514,15.856138 0 0 1 -5.00663,-12.30748 q 0.0701,-1.8974 0.1502,-3.79481 m 11.71552,16.1228 a 18.023884,18.461221 0 0 1 -13.588,-18.68685 q 0.40053,-13.92797 1.19158,-28.11234 a 20.727467,21.230404 0 0 1 6.49861,-14.1536 22.429723,22.973964 0 0 1 14.57932,-6.26656 l 1.2116,-0.0513 m -29.03848,18.58429 a 20.096631,20.584262 0 0 1 16.68211,-9.51778 c 19.93642,-0.30769 39.993,-0.4923 60.85063,-1.02563 a 22.229457,22.768839 0 0 1 13.44782,4.1948 m -64.2251,-4.10249 c 17.80359,-0.21538 35.28676,-0.52307 52.63975,-1.12819 a 17.443115,17.86636 0 0 1 18.47448,18.06123 q -0.10013,5.96913 -0.21027,11.87672 m -1.86247,-24.91239 a 17.61334,18.040716 0 0 1 5.00663,12.94337 c -0.0601,9.02548 0.0601,18.28686 0.3004,27.69183 0.27036,10.95365 -7.76028,19.94837 -17.68343,20.46118 -8.63144,0.45128 -17.2028,0.93332 -25.77416,1.36408 m 25.79418,1.45639 q -0.82108,0.0615 -1.6622,0 c -19.21546,-0.37948 -38.47098,-1.40511 -57.7265,-3.41533 a 20.146697,20.635543 0 0 1 -13.30763,-7.37423 23.711421,24.286762 0 0 1 -5.48727,-15.7946 q 0,-3.4461 0,-6.92296 m 4.6061,31.12767 A 18.875012,19.333001 0 0 1 360.27486,212.9861 q 0.0701,-13.8254 0.47063,-27.58927 a 19.656047,20.132987 0 0 1 19.9264,-19.24069 q 11.45518,0 23.03052,-0.0821" />
  <path
     style="fill:none;stroke:#ffffff;stroke-width:0.45603105px"
     inkscape:connector-curvature="0"
     id="path3829"
     class="cls-4"
     d="m 396.17243,252.91364 c 17.68343,-0.5846 34.49571,-0.57435 50.99758,-0.43076 a 62.813236,64.337356 0 0 1 12.81698,1.30254 16.381708,16.779199 0 0 1 3.85511,1.32305 3.8250688,3.9178814 0 0 1 1.00133,0.76922 1.1415127,1.1692107 0 0 1 0.35046,0.8205 q -0.10013,2.90252 -0.20026,5.79477 a 1.2116055,1.2410043 0 0 1 -0.41054,0.8205 4.2856791,4.3896682 0 0 1 -1.1315,0.76922 13.457834,13.784378 0 0 1 -2.13283,0.81024 m -6.05803,-21.89706 c 1.00133,0.13333 2.00266,0.28718 2.91386,0.47179 a 16.732172,17.138167 0 0 1 3.93522,1.22049 3.8951616,3.989675 0 0 1 1.07142,0.73845 1.1214861,1.1486982 0 0 1 0.37049,0.79999 q 0,2.84097 0,5.69221 a 1.1415127,1.1692107 0 0 1 -0.38051,0.81024 4.0053076,4.1024936 0 0 1 -1.08143,0.7487 17.543247,17.968922 0 0 1 -4.00531,1.27178 69.01145,70.685965 0 0 1 -13.01725,1.22049 c -12.12607,0.0923 -24.03184,0.31794 -35.82747,0.5846 m 9.01194,5.87683 c -12.40644,-0.20513 -24.42236,-0.45128 -36.21799,-0.81025 a 63.37398,64.911705 0 0 1 -13.01725,-1.62048 16.902398,17.312523 0 0 1 -3.90518,-1.43587 4.0053076,4.1024936 0 0 1 -1.05139,-0.81025 1.2116055,1.2410043 0 0 1 -0.41055,-0.86152 q 0.0601,-2.98456 0.14019,-5.97939 a 1.2716852,1.3025417 0 0 1 0.40053,-0.85126 4.4058384,4.512743 0 0 1 1.12149,-0.8205 19.075277,19.538126 0 0 1 4.10544,-1.48716 61.591618,63.086095 0 0 1 7.3998,-1.36407 m -7.05935,9.74342 q 0.0701,-1.49741 0.13017,-2.99482 a 1.1314994,1.1589544 0 0 1 0.41054,-0.77948 4.1655199,4.2665933 0 0 1 1.14152,-0.71793 18.734826,19.189414 0 0 1 4.14549,-1.15896 74.558801,76.367918 0 0 1 13.55797,-0.89229 c 19.49583,0.31794 38.53106,0.34871 57.97682,0.72819 a 68.260455,69.916747 0 0 1 13.52793,1.49741 c 0.66088,0.15385 1.2817,0.3282 1.84244,0.50256 M 391.3961,241.57025 c 15.50054,-0.4 31.96236,-0.60512 49.06502,-0.90255 a 81.107479,83.075495 0 0 1 14.29895,0.90255 20.777533,21.281686 0 0 1 4.38581,1.17946 4.616117,4.7281239 0 0 1 1.21161,0.71794 1.2216188,1.2512605 0 0 1 0.47062,0.78973 q 0.28037,2.79995 0.58077,5.57939 a 1.0013269,1.0256234 0 0 1 -0.28037,0.78973 3.2042461,3.2819949 0 0 1 -0.94125,0.71794 13.517913,13.845916 0 0 1 -3.52467,1.13844 37.159241,38.060884 0 0 1 -4.56605,0.60512 m 6.67885,-5.06658 a 12.476533,12.779268 0 0 1 1.91253,0.8205 4.0053076,4.1024936 0 0 1 1.0514,0.77947 1.1715525,1.1999794 0 0 1 0.36047,0.83075 q -0.0601,2.91277 -0.0801,5.79478 a 1.1615392,1.1897231 0 0 1 -0.38051,0.81024 4.0053076,4.1024936 0 0 1 -1.09144,0.7487 16.812279,17.220217 0 0 1 -4.00531,1.24101 56.985514,58.368228 0 0 1 -13.01725,0.77947 c -15.20014,-0.69742 -29.73941,-2.21534 -43.93822,-4.23582 m 10.37374,4.10249 c -9.5827,0 -18.88502,0 -27.95704,-0.11282 a 61.141021,62.624565 0 0 1 -12.73688,-1.3128 15.740859,16.1228 0 0 1 -3.78502,-1.33331 3.7149228,3.8050628 0 0 1 -1.00133,-0.76921 1.1314994,1.1589544 0 0 1 -0.33043,-0.8205 q 0.1502,-2.90252 0.33043,-5.81529 a 1.2516586,1.2820292 0 0 1 0.43058,-0.8205 4.5059711,4.6153053 0 0 1 1.17155,-0.77947 19.866326,20.348368 0 0 1 4.27566,-1.34357 79.605489,81.53706 0 0 1 14.23887,-1.43587 h 2.00266 m -11.70552,-2.61534 c 0.49065,-0.14359 1.00133,-0.27692 1.60213,-0.39999 a 63.243807,64.778374 0 0 1 13.30763,-1.1487 c 18.40439,0.21538 36.04777,1.15895 53.24055,2.66662 m -47.96356,1.21024 c 16.73218,0.30768 32.91362,0 48.86476,-0.7282 a 68.270468,69.927003 0 0 1 12.89709,0.4923 16.191456,16.58433 0 0 1 3.87513,1.02563 3.574737,3.6614755 0 0 1 1.00133,0.67691 1.0013269,1.0256234 0 0 1 0.35046,0.75896 q -0.0801,2.68713 -0.16021,5.37427 a 1.0513932,1.0769046 0 0 1 -0.40053,0.7487 3.9252014,4.0204437 0 0 1 -1.12148,0.66666 17.64338,18.071484 0 0 1 -4.12547,1.02562 65.737111,67.332176 0 0 1 -12.01592,0.27692 m 19.19543,-12.30748 a 3.4846176,3.5691694 0 0 1 0.70093,0.59486 1.2316321,1.2615168 0 0 1 0.36048,0.85127 q 0,2.99482 -0.0701,5.97938 a 1.2416454,1.271773 0 0 1 -0.39052,0.85127 4.2255995,4.3281307 0 0 1 -1.09145,0.81024 17.833632,18.266353 0 0 1 -4.00531,1.42562 65.677031,67.270639 0 0 1 -13.09735,1.58971 c -18.79491,0.55384 -36.93895,0.94358 -54.81264,2.05125 -2.18289,0.13333 -4.27566,0.19487 -6.1882,0.1641 m 19.97648,1.30254 q -8.66148,0.13333 -17.62336,0.15385 a 64.585585,66.152709 0 0 1 -13.07733,-1.18973 17.403062,17.825335 0 0 1 -4.0053,-1.30254 4.0053076,4.1024936 0 0 1 -1.09145,-0.75896 1.1715525,1.1999794 0 0 1 -0.38051,-0.8205 q 0,-2.89226 0,-5.78452 a 1.1615392,1.1897231 0 0 1 0.3705,-0.82049 4.0053076,4.1024936 0 0 1 1.07142,-0.76922 17.322955,17.743285 0 0 1 3.95524,-1.32306 67.209062,68.839843 0 0 1 13.01725,-1.35382 l 18.80492,-0.30769 m -22.38967,-5.12811 c 19.45578,0.50255 37.89021,0.13333 56.0743,-0.64615 a 67.599579,69.239836 0 0 1 12.94716,0.55384 16.391721,16.789455 0 0 1 3.90517,1.02562 3.6548432,3.7435254 0 0 1 1.06141,0.68717 1.0013269,1.0256234 0 0 1 0.36048,0.75896 q -0.0601,2.71791 -0.11015,5.42555 a 1.0614065,1.0871608 0 0 1 -0.39052,0.75896 3.8951616,3.989675 0 0 1 -1.11147,0.67691 17.453128,17.876616 0 0 1 -4.06539,1.02563 c -0.84111,0.12307 -1.75232,0.23589 -2.74363,0.31794 m -1.59211,-4.47172 c 1.18157,0.1641 2.28302,0.35897 3.26433,0.58461 a 18.204123,18.645833 0 0 1 4.13548,1.35382 4.2956924,4.3999244 0 0 1 1.13149,0.77947 1.2316321,1.2615168 0 0 1 0.41055,0.83076 q 0.0901,2.94354 0.17022,5.90759 a 1.191579,1.2204918 0 0 1 -0.35046,0.84101 4.0053076,4.1024936 0 0 1 -1.00133,0.79999 17.413075,17.835591 0 0 1 -3.87513,1.45638 73.447328,75.229476 0 0 1 -12.87707,1.93843 c -15.851,1.12819 -31.70201,2.96405 -47.06236,5.64093 m 24.85293,-7.41526 c -10.22354,0.4923 -20.34696,0.93332 -30.47037,1.46664 a 74.779093,76.593556 0 0 1 -13.59802,-0.41025 18.214136,18.65609 0 0 1 -4.12547,-1.02562 4.0053076,4.1024936 0 0 1 -1.12149,-0.66665 1.0513932,1.0769046 0 0 1 -0.41054,-0.74871 q -0.0901,-2.67688 -0.19025,-5.32298 a 1.0013269,1.0256234 0 0 1 0.35046,-0.73845 3.4445645,3.5281445 0 0 1 1.00133,-0.64615 15.190129,15.558707 0 0 1 3.83508,-0.93331 54.221852,55.537507 0 0 1 11.74557,0 m -13.64809,-3.9384 a 19.025211,19.486845 0 0 1 3.72494,-1.241 64.004815,65.557848 0 0 1 13.15743,-1.40511 c 18.90505,-0.22563 37.28941,0 55.27325,0.12308 1.49197,0 2.9439,0.0615 4.32573,0.15384 m -56.18445,2.69739 c 17.1327,0.50256 34.93629,0.76922 53.16044,1.21024 a 73.507408,75.291014 0 0 1 13.91844,1.54869 19.686087,20.163756 0 0 1 4.24563,1.41536 4.5860772,4.6973552 0 0 1 1.17155,0.79999 1.2917117,1.3230542 0 0 1 0.43057,0.84101 q 0.18024,2.96405 0.37049,5.94861 a 1.1715525,1.1999794 0 0 1 -0.32042,0.85127 3.7850157,3.8768565 0 0 1 -1.00133,0.81024 15.951138,16.338181 0 0 1 -3.69489,1.45639 52.169131,53.434979 0 0 1 -7.1695,1.38459 m 8.20086,-13.71259 a 16.121363,16.512537 0 0 1 3.08409,1.10768 4.1955597,4.297362 0 0 1 1.11147,0.76922 1.191579,1.2204918 0 0 1 0.39052,0.82049 q 0,2.89226 0.0801,5.75375 a 1.1314994,1.1589544 0 0 1 -0.37049,0.81024 3.8751351,3.9691626 0 0 1 -1.07142,0.74871 16.411748,16.809968 0 0 1 -3.95524,1.23075 59.448778,60.891261 0 0 1 -13.14743,0.81024 c -19.08529,-0.75896 -38.37084,-2.50252 -57.51621,-4.83069 a 75.650247,77.485848 0 0 1 -9.34238,-1.72304 m 26.85558,1.7333 q -9.5126,0.23589 -18.97514,0.50256 a 68.180349,69.834697 0 0 1 -13.06732,-0.7282 16.792252,17.199704 0 0 1 -3.94523,-1.11793 3.7549759,3.8460878 0 0 1 -1.07142,-0.69742 1.0614065,1.0871608 0 0 1 -0.37049,-0.77947 q 0,-2.75893 0.0801,-5.49735 a 1.0814331,1.1076733 0 0 1 0.39052,-0.76921 3.9051749,3.9999313 0 0 1 1.10146,-0.69743 17.282902,17.70226 0 0 1 4.06538,-1.02562 65.787177,67.383457 0 0 1 13.47786,-0.42051 c 11.60538,0.71794 23.29087,1.641 35.04645,2.87175 m -28.54783,-6.7486 c 16.602,0.15384 33.59451,-0.0718 51.06767,-0.55384 a 79.815767,81.752441 0 0 1 14.06864,0.72819 19.936419,20.420162 0 0 1 4.30571,1.11793 4.4058384,4.512743 0 0 1 1.19158,0.69743 1.1615392,1.1897231 0 0 1 0.45059,0.77947 q 0.22029,2.75893 0.47063,5.49734 a 1.0013269,1.0256234 0 0 1 -0.3004,0.76922 3.2643257,3.3435323 0 0 1 -1.00133,0.69742 14.018577,14.358728 0 0 1 -3.60478,1.08716 l -0.93123,0.15385 m -11.6254,-2.35894 0.8311,0.14359 a 18.19411,18.635577 0 0 1 4.13548,1.18972 4.1354801,4.2358246 0 0 1 1.1315,0.7282 1.1415127,1.1692107 0 0 1 0.41054,0.78973 l 0.19025,5.63067 a 1.0814331,1.1076733 0 0 1 -0.35046,0.79999 3.7149228,3.8050628 0 0 1 -1.00133,0.72819 16.201469,16.594587 0 0 1 -3.85511,1.21023 63.273847,64.809143 0 0 1 -12.72686,1.02563 c -18.36434,-0.26667 -36.4483,-0.51281 -53.61105,-1.16921 h -0.35046 m 25.12329,0.54358 q -11.85571,-0.14359 -23.88164,-0.36923 a 66.818544,68.439849 0 0 1 -13.26759,-1.46664 17.833632,18.266353 0 0 1 -4.0053,-1.38459 4.1855464,4.2871058 0 0 1 -1.10146,-0.78973 1.2216188,1.2512605 0 0 1 -0.39052,-0.84101 q 0,-2.9538 -0.0601,-5.90759 a 1.2015923,1.2307481 0 0 1 0.37049,-0.84101 4.0854138,4.1845435 0 0 1 1.07142,-0.79999 17.573287,17.999691 0 0 1 3.94523,-1.42562 69.512113,71.198776 0 0 1 13.01725,-1.71279 q 12.59669,-0.57435 25.17336,-1.41536" />
  <path
     style="fill:#ebb847;stroke-width:1.02946246"
     inkscape:connector-curvature="0"
     id="path2816"
     class="cls-5"
     d="m 534.33792,300.44103 c 0,127.83217 -98.0299,231.49074 -218.98018,231.49074 V 300.44103 Z" />
  <path
     style="fill:none;stroke:#ffffff;stroke-width:2.02680469px"
     inkscape:connector-curvature="0"
     id="path3867"
     class="cls-6"
     d="m 366.65331,379.2807 a 43.687893,44.747949 0 0 1 6.06805,-12.30748 46.591741,47.722257 0 0 1 14.29894,-13.26131 50.526955,51.752957 0 0 1 37.94028,-5.53837 48.063691,49.229923 0 0 1 7.35975,2.61534 m -20.2268,-10.82033 a 49.165151,50.358109 0 0 1 11.21486,1.36408 51.067672,52.306793 0 0 1 31.23139,23.15858 53.300631,54.593934 0 0 1 7.63011,20.82016 m -8.68151,-11.75365 a 50.637101,51.865775 0 0 1 2.66353,32.61483 46.261303,47.383801 0 0 1 -21.81891,30.2046 q -1.00133,0.59487 -2.00265,1.12819 m 16.88237,-8.67677 a 46.461568,47.588926 0 0 1 -10.60405,9.59983 48.634448,49.814529 0 0 1 -64.38532,-11.42544 46.061037,47.178676 0 0 1 -4.39583,-7.03578 m 13.18748,13.95873 a 48.804673,49.988885 0 0 1 -14.08867,-12.93311 46.431528,47.558157 0 0 1 -8.93184,-22.56371 m 4.65617,-25.05598 a 37.609838,38.522415 0 0 1 5.00663,-9.98957 47.913492,49.07608 0 0 1 14.43914,-13.49721 63.554218,65.096317 0 0 1 40.76402,-8.53318 59.248513,60.686137 0 0 1 6.24828,1.22049 m -22.91036,-1.17947 a 51.408123,52.655505 0 0 1 11.25491,1.46664 53.460843,54.758033 0 0 1 31.64193,22.71756 52.629742,53.906766 0 0 1 8.59139,23.04576 m -0.23031,-18.64583 a 47.543001,48.696599 0 0 1 2.32308,32.05073 55.323311,56.665693 0 0 1 -23.68138,33.10712 m 11.66546,-8.37934 a 45.760639,46.870989 0 0 1 -11.36506,10.06136 47.773306,48.932492 0 0 1 -37.92025,5.12812 53.350697,54.645215 0 0 1 -28.30751,-19.97914 q -1.46194,-1.98971 -2.75365,-4.1025 m 20.0766,16.05101 a 45.280002,46.37869 0 0 1 -25.70406,-42.52235 m 1.00133,-15.38435 a 42.646513,43.681301 0 0 1 6.54867,-13.3331 48.063691,49.229923 0 0 1 14.39908,-13.13824 52.96018,54.245222 0 0 1 38.40089,-6.15374 48.984912,50.173497 0 0 1 7.79032,2.56406 m -23.69139,-8.20499 a 57.966814,59.373339 0 0 1 12.21619,1.65126 49.425496,50.624771 0 0 1 30.77077,22.46115 45.790679,46.901758 0 0 1 5.24696,36.92244 v 0 m -1.37182,-20.23555 a 50.827353,52.060644 0 0 1 0.74098,25.22008 57.00554,58.38874 0 0 1 -39.88285,43.45566 m 22.4898,-13.04593 -0.58077,0.37948 a 53.320657,54.614446 0 0 1 -38.5611,7.59987 51.9188,53.178573 0 0 1 -28.5278,-16.11254 l -0.29038,-0.3282 m 13.39775,8.02038 A 53.8814,55.188795 0 0 1 372.3809,422.44919 52.880074,54.163172 0 0 1 362.00716,398.49063 m 1.77235,-26.46109 a 36.968989,37.866016 0 0 1 5.06671,-9.91778 43.878145,44.942817 0 0 1 14.40909,-12.78952 55.483524,56.829793 0 0 1 60.26987,5.12812 m -22.69007,-10.64597 q 2.00266,0.35896 4.00531,0.87178 a 51.147778,52.388843 0 0 1 30.91096,22.19449 43.347442,44.399237 0 0 1 5.7376,35.7122 41.104469,42.101841 0 0 1 -5.71757,12.94337 m 5.69755,-26.96364 a 52.649768,53.927278 0 0 1 -23.42104,46.33767 51.117738,52.358075 0 0 1 -36.80877,8.27678 47.913492,49.07608 0 0 1 -6.28834,-1.53844 m 25.36361,-2.50252 a 46.721913,47.855588 0 0 1 -21.58861,-0.38974 45.64048,46.747915 0 0 1 -26.33489,-18.8407 48.063691,49.229923 0 0 1 -8.38111,-25.93801 m -4.36578,-22.20475 a 42.05573,43.076183 0 0 1 4.89648,-8.89215 47.543001,48.696599 0 0 1 14.76958,-13.33311 57.826628,59.229751 0 0 1 60.78054,2.57432 m -22.02919,-8.15371 q 1.63216,0.27692 3.2443,0.6564 a 48.714554,49.896578 0 0 1 30.73072,22.38936 46.231263,47.353032 0 0 1 5.41718,37.25064 45.450228,46.553046 0 0 1 -4.94656,11.93826 m 8.01062,-26.66621 a 50.987566,52.224744 0 0 1 -1.5821,13.45618 53.200498,54.491371 0 0 1 -21.93907,31.89688 47.332723,48.481218 0 0 1 -36.13789,7.49731 44.16853,45.240248 0 0 1 -5.82772,-1.70253 m 25.69405,4.20505 a 47.20255,48.347887 0 0 1 -22.22946,-0.86152 50.436836,51.660651 0 0 1 -27.52648,-20.1535 57.866682,59.270776 0 0 1 -10.32368,-32.28663" />
  <path
     style="fill:none;stroke:#ffffff;stroke-width:1.01340234"
     inkscape:connector-curvature="0"
     id="path5256"
     class="cls-3"
     d="m 349.77094,354.52215 c 3.74497,7.65115 7.63011,15.22025 11.62541,22.75858 q 8.20087,-3.54865 16.54192,-7.11782 M 356.9805,355.5888 q 5.38714,9.90752 10.66413,19.78427 11.46519,-5.68195 22.70008,-11.49723 m -40.93425,-10.14342 c 4.57607,7.76397 9.12209,15.58948 13.71818,23.48678 q 9.3524,-3.95891 18.80492,-7.79474 m -30.16998,-9.07677 q 5.24696,10.07162 11.09471,20.1535 8.21088,-3.71276 16.72215,-7.43577 m -31.04113,-23.68164 c 4.88648,8.86138 9.75292,17.51765 14.6394,26.04058 q 11.45518,-5.06658 23.03052,-10.3588" />
  <line
     style="fill:none;stroke:#ffffff;stroke-width:6.08041382px;stroke-miterlimit:10"
     class="cls-7"
     x1="316.6871"
     y1="300.22565"
     x2="535.66724"
     y2="300.44104"
     id="line20" />
  <path
     style="fill:#ebb847;stroke-width:1.03343844"
     inkscape:connector-curvature="0"
     id="path3607"
     class="cls-5"
     d="m 67.667115,300.44103 c 0,-128.82151 98.029905,-233.282342 218.980175,-233.282342 V 300.44103 Z" />
  <path
     style="fill:none;stroke:#ffffff;stroke-width:1.01340234"
     inkscape:connector-curvature="0"
     id="path3833"
     class="cls-3"
     d="m 215.78339,241.68306 c 0,-0.97434 -0.0601,-2.05124 -0.0901,-3.19994 a 142.98948,146.45902 0 0 1 0.65086,-18.73814 65.606938,67.198845 0 0 1 1.7323,-9.85624 32.733376,33.527629 0 0 1 3.36446,-8.53319 16.952464,17.363804 0 0 1 5.53733,-5.99989 14.939797,15.302301 0 0 1 8.20087,-2.20509 15.190129,15.558707 0 0 1 6.37845,1.41536 m -15.83097,-7.48706 a 16.531907,16.933042 0 0 1 16.65206,0 18.023884,18.461221 0 0 1 5.76765,6.22554 35.176614,36.03015 0 0 1 3.60477,8.86138 68.390627,70.050078 0 0 1 1.95259,10.20496 116.09384,118.91078 0 0 1 0.84111,12.57414 m -5.50729,-7.91781 v 0.24615 a 140.27589,143.67958 0 0 1 -0.44059,18.46122 c -0.21028,2.50252 -0.43057,4.59479 -0.61081,6.05118 -0.0901,0.72819 -0.16021,1.30254 -0.22029,1.69228 l -0.0601,0.45127 v 0.11282 0 0 c -10.70418,-0.62563 -21.18808,-1.37434 -31.66195,-2.31791 m 17.74351,2.64611 c -5.84775,0 -11.79563,0 -17.80359,-0.0821 v 0 c 0,0 -0.40054,-3.30251 -0.62083,-8.27678 a 110.07587,112.74678 0 0 1 0.51068,-18.2561 58.006867,59.414364 0 0 1 1.89251,-9.73317 31.171306,31.927656 0 0 1 3.67487,-8.44088 17.322955,17.743285 0 0 1 6.00796,-5.87682 15.019904,15.384351 0 0 1 3.56472,-1.46664 m -21.46845,38.07114 q 0,-0.37948 -0.0701,-0.76922 a 87.215573,89.331798 0 0 1 0.34045,-18.82019 55.253218,56.593899 0 0 1 2.17288,-10.02034 33.294119,34.101978 0 0 1 4.09543,-8.74856 19.926405,20.409906 0 0 1 6.43853,-6.23579 19.285556,19.753507 0 0 1 9.34238,-2.51278 19.095304,19.558638 0 0 1 9.42249,2.05124 18.294242,18.73814 0 0 1 3.27434,2.23586 m -16.28158,1.13845 a 17.5833,18.009947 0 0 1 4.4559,-0.4923 16.301602,16.697149 0 0 1 8.40114,2.33842 18.374349,18.820189 0 0 1 5.79768,5.96913 34.465672,35.301957 0 0 1 3.72494,8.28703 64.35528,65.916816 0 0 1 2.17288,9.2819 112.05849,114.77751 0 0 1 1.45192,16.83048 q 0,0.71793 0,1.37433 m -5.27699,-11.09724 c 0,4.70761 -0.25034,9.14856 -0.51068,12.73824 -0.18024,2.5538 -0.39052,4.6871 -0.54072,6.15374 -0.0801,0.7487 -0.1502,1.33331 -0.19025,1.7333 l -0.0601,0.46153 v 0.11282 0 0 c -12.19616,-0.46153 -23.89166,-1.02562 -35.32681,-1.65125 v 0 c 0,0 0,-0.43076 0,-1.21024 m 16.09132,-1.58971 q -5.95789,-0.2359 -12.01592,-0.33846 v 0 c 0,0 -0.47062,-3.33328 -0.85113,-8.20499 a 120.91022,123.84403 0 0 1 -0.26034,-17.70226 56.074306,57.43491 0 0 1 1.28169,-9.23061 29.148626,29.855897 0 0 1 2.3331,-6.7486 m -5.71758,38.11217 q 0,-0.71794 -0.0601,-1.48716 a 129.5717,132.71567 0 0 1 0.54072,-18.46122 68.711052,70.378278 0 0 1 1.74231,-10.08188 36.117861,36.994236 0 0 1 3.40451,-8.94343 18.935092,19.394538 0 0 1 5.5874,-6.4922 16.02123,16.409974 0 0 1 8.26095,-2.83072 14.389068,14.738208 0 0 1 8.19085,1.74356 15.120036,15.486913 0 0 1 5.40717,5.56913 l 0.21028,0.35897 m -14.37906,-9.71265 a 18.424415,18.871471 0 0 1 2.55339,-0.0615 16.02123,16.409974 0 0 1 8.39111,2.69739 19.025211,19.486845 0 0 1 5.72759,6.47168 37.049095,37.948066 0 0 1 3.57474,9.02549 71.705019,73.444892 0 0 1 2.00266,10.32803 136.31063,139.61811 0 0 1 0.90119,19.48684 c 0,2.67688 -0.1502,4.923 -0.23031,6.50246 0,0.78973 -0.0901,1.41536 -0.12015,1.83586 v 0.48204 0.15385 0 q -3.0941,0.0923 -6.17819,0.22563 m 3.82507,-12.38953 c 0,1.76408 0,3.41533 -0.0701,4.91274 -0.10013,2.59483 -0.27035,4.74864 -0.41054,6.2563 -0.0701,0.74871 -0.14019,1.34357 -0.19025,1.75382 l -0.0601,0.46153 v 0.12307 0 0 c -12.21619,-0.31794 -24.85294,-0.81024 -37.51972,-1.36407 v 0 c 0,0 -0.52069,-3.41533 -0.88117,-8.53319 -0.14018,-2.05125 -0.26034,-4.39993 -0.3004,-6.90245 m -3.14416,9.76394 c -0.10014,-1.38459 -0.24032,-3.82558 -0.32043,-6.93322 a 135.49956,138.78736 0 0 1 0.61081,-18.46122 68.911317,70.583402 0 0 1 1.75232,-10.09213 35.80745,36.676293 0 0 1 3.3945,-8.93318 18.754853,19.209926 0 0 1 5.61745,-6.45117 16.02123,16.409974 0 0 1 8.31101,-2.76919 14.709492,15.066408 0 0 1 8.29099,1.84613 13.648086,13.979247 0 0 1 1.34177,0.90254 m -19.14537,5.2512 a 16.501867,16.902274 0 0 1 8.72156,-2.05125 16.181443,16.574074 0 0 1 8.71155,2.67688 19.025211,19.486845 0 0 1 5.87778,6.66655 37.589812,38.501902 0 0 1 3.61479,9.4665 75.590168,77.42431 0 0 1 1.90253,11.02545 161.38386,165.29972 0 0 1 0.71094,21.27143 c 0,1.25126 -0.0601,2.41022 -0.10014,3.47687 m 3.61479,-23.02525 c 0,5.43581 -0.36047,10.6152 -0.77102,14.74847 -0.27036,2.68713 -0.56074,4.93324 -0.78103,6.5127 -0.11015,0.78973 -0.21028,1.40511 -0.27036,1.82561 l -0.0801,0.48205 v 0.12307 0 0 c -12.46652,0.27692 -24.91301,0.69743 -37.63987,1.63074 m 14.77958,-4.59479 q -6.93919,-0.39999 -14.01858,-0.67691 v 0 c 0,0 -0.50066,-3.40507 -0.89118,-8.46139 a 123.16321,126.15168 0 0 1 -0.21028,-18.46123 62.522852,64.039925 0 0 1 1.36181,-9.78444 31.972368,32.748155 0 0 1 3.00398,-8.52293 19.275543,19.74325 0 0 1 2.00265,-3.07687 m -7.12944,46.50176 c -0.13018,-1.17946 -0.26035,-2.58457 -0.36048,-4.16403 a 89.1982,91.362532 0 0 1 0.46061,-18.03046 54.181799,55.496482 0 0 1 2.08276,-9.64086 31.171306,31.927656 0 0 1 3.9252,-8.37934 18.023884,18.461221 0 0 1 6.20823,-5.84605 17.403062,17.825335 0 0 1 9.01194,-2.05125 17.803592,18.235584 0 0 1 9.06201,2.7179 19.025211,19.486845 0 0 1 4.6061,4.24608 m -18.45445,-6.67681 a 18.574614,19.025314 0 0 1 5.48727,-0.76921 16.381708,16.779199 0 0 1 8.55133,2.30765 17.302929,17.722772 0 0 1 5.70756,5.97938 30.820842,31.568688 0 0 1 3.38449,8.33832 54.782595,56.111856 0 0 1 1.59211,9.39471 93.874397,96.152194 0 0 1 -0.0901,17.11766 c -0.20027,2.29739 -0.44059,4.1948 -0.62082,5.51785 -0.0901,0.66665 -0.17023,1.17947 -0.23031,1.53843 l -0.0701,0.41025 v 0.10257 0 0 q -4.39583,-0.6564 -8.77163,-1.36408 m 8.73157,-12.93311 c -0.0601,2.05124 -0.17022,3.9589 -0.28037,5.69221 -0.18024,2.63585 -0.40053,4.83068 -0.57075,6.36912 -0.0901,0.76921 -0.16022,1.37433 -0.21028,1.79484 l -0.0601,0.47178 v 0.12308 0 0 c -12.38642,0 -24.68271,0.10256 -36.87887,0.53332 v 0 c 0,0 -0.40053,-3.16917 -0.55073,-7.8255 a 85.55337,87.629263 0 0 1 0.91121,-16.80997 l 0.0801,-0.47179" />
  <path
     style="fill:none;stroke:#ffffff;stroke-width:2.02680469px"
     inkscape:connector-curvature="0"
     id="path3837"
     class="cls-6"
     d="m 238.60363,165.84847 a 13.137409,13.456179 0 0 1 -2.83375,4.8512 12.336347,12.63568 0 0 1 -8.79166,4.05121 12.096029,12.389531 0 0 1 -8.82169,-3.66147 12.446493,12.748499 0 0 1 0.17023,-18.14328 12.516586,12.820292 0 0 1 2.93389,-2.17432 m -1.85246,15.10743 a 12.3764,12.676705 0 0 1 3.46459,-7.94858 12.586679,12.892086 0 0 1 9.01195,-3.89737 13.638072,13.968991 0 0 1 9.35239,3.75378 13.307635,13.630535 0 0 1 4.27567,9.12805 12.556639,12.861317 0 0 1 -0.79105,5.41529 m 1.00132,-5.35375 a 12.92713,13.240798 0 0 1 -2.10278,3.01533 12.696825,13.004905 0 0 1 -9.09205,4.0307 13.668112,13.999759 0 0 1 -13.70817,-12.95362 12.616719,12.922855 0 0 1 2.8638,-9.23062 11.445166,11.722875 0 0 1 1.25166,-1.30254 m -9.21221,18.092 a 13.207502,13.527973 0 0 1 12.95717,-12.30748 13.628059,13.958734 0 0 1 9.42249,3.63071 13.067316,13.384385 0 0 1 4.29569,9.00497 11.85571,12.143381 0 0 1 -2.90385,8.94344 9.7429107,9.9793157 0 0 1 -6.94921,3.42558 m 8.21088,-9.90752 a 12.666785,12.974136 0 0 1 -2.39317,3.44609 12.015923,12.307481 0 0 1 -8.82169,3.68199 12.216188,12.512605 0 0 1 -8.73157,-4.1025 13.257568,13.579254 0 0 1 -3.4746,-9.54855 14.118709,14.46129 0 0 1 4.0053,-9.68188 14.739532,15.097176 0 0 1 6.38847,-4.02045 m -8.21088,11.28186 a 12.696825,13.004905 0 0 1 3.10411,-4.71787 13.207502,13.527973 0 0 1 8.79165,-3.73327 11.48522,11.7639 0 0 1 8.46122,3.36405 10.614065,10.871608 0 0 1 3.08408,8.50242 11.244901,11.517751 0 0 1 -4.4559,8.32806 q -0.4506,0.34871 -0.93124,0.66665 m 4.51599,-3.66147 a 12.796958,13.107467 0 0 1 -3.67487,8.04088 11.88575,12.17415 0 0 1 -8.83171,3.6102 12.256241,12.55363 0 0 1 -8.71154,-4.22557 13.557966,13.886941 0 0 1 -3.44456,-9.68188 14.328988,14.676671 0 0 1 2.20292,-7.44603 m -3.49464,7.05629 a 12.196162,12.492093 0 0 1 -0.56074,-4.1025 13.01725,13.333104 0 0 1 3.88515,-9.11779 13.688139,14.020272 0 0 1 9.01194,-4.10249 12.576666,12.88183 0 0 1 9.01194,3.23071 11.385087,11.661338 0 0 1 3.74497,7.51782 m -4.19556,-8.69728 0.49065,0.46153 a 12.015923,12.307481 0 0 1 3.53468,8.8819 13.628059,13.958734 0 0 1 -12.2262,13.69207 10.87441,11.13827 0 0 1 -8.42116,-2.7897 9.8931098,10.133159 0 0 1 -3.18422,-8.08191 10.283627,10.533152 0 0 1 2.23296,-6.01015 m 21.75883,15.65101 a 12.446493,12.748499 0 0 1 -3.36445,5.36401 11.755578,12.040819 0 0 1 -8.85173,3.22046 12.096029,12.389531 0 0 1 -8.49126,-4.61531 14.178789,14.522827 0 0 1 -3.11412,-10.09213 16.321628,16.717661 0 0 1 4.41585,-10.37931 18.454455,18.902239 0 0 1 8.46121,-5.32299 m -11.81566,9.51779 a 13.5079,13.83566 0 0 1 3.22428,-5.43581 12.316321,12.615168 0 0 1 8.92182,-3.83583 12.015923,12.307481 0 0 1 8.73157,4.0307 13.107369,13.42541 0 0 1 3.42454,9.51779 14.018577,14.358728 0 0 1 -4.00531,9.62035 14.57932,14.933077 0 0 1 -3.46459,2.68713" />
  <path
     style="fill:none;stroke:#ffffff;stroke-width:1.01340234"
     inkscape:connector-curvature="0"
     id="path3847"
     class="cls-3"
     d="m 149.29528,266.72879 c -0.13017,-1.1487 -0.26034,-2.42047 -0.39051,-3.79481 a 127.03834,130.12084 0 0 1 -0.21028,-22.47141 69.952697,71.650051 0 0 1 1.91253,-11.87672 36.618525,37.507048 0 0 1 4.08542,-10.25623 19.23549,19.702226 0 0 1 6.85909,-6.99475 17.393048,17.815078 0 0 1 10.15345,-2.05125 18.444441,18.891983 0 0 1 7.83038,2.43073 m -15.44046,-6.22554 a 19.626007,20.102219 0 0 1 10.20352,-3.07687 18.724813,19.179158 0 0 1 10.45385,2.63586 20.787546,21.291942 0 0 1 7.00929,7.47679 39.051749,39.999313 0 0 1 4.11545,10.63572 72.005417,73.752579 0 0 1 1.87248,12.19466 113.04981,115.79288 0 0 1 0.18024,14.75872 m -5.00663,-6.15374 v 0.31794 a 129.3414,132.47977 0 0 1 0.50066,23.74318 c -0.20026,3.18969 -0.46061,5.82554 -0.67089,7.66141 -0.11014,0.92306 -0.20026,1.641 -0.26034,2.1333 l -0.0801,0.56409 v 0.14359 0 0 c -13.43781,-0.75896 -26.97575,-1.84613 -40.41355,-3.07687 m 28.11726,-1.77433 c -7.58005,0.0615 -15.26023,0 -23.03052,-0.26666 v 0 c 0,0 -0.61081,-4.21532 -1.07142,-10.61521 a 157.45866,161.27928 0 0 1 -0.12016,-23.68164 83.901181,85.936985 0 0 1 1.83243,-12.78952 43.517667,44.573593 0 0 1 4.0053,-11.22032 22.29955,22.840633 0 0 1 6.77899,-8.03064 17.693446,18.122765 0 0 1 4.0053,-2.12304 m -23.5512,55.26059 q 0,-0.44102 0,-0.90255 a 151.69101,155.37169 0 0 1 0.761,-22.75858 84.381818,86.429284 0 0 1 2.28303,-12.5844 45.269989,46.368434 0 0 1 4.36579,-11.16904 24.101938,24.686755 0 0 1 7.15948,-8.14345 20.657374,21.158611 0 0 1 10.55399,-3.54865 18.694773,19.148389 0 0 1 10.4939,2.23586 17.623353,18.050972 0 0 1 3.52467,2.66662 m -16.71214,-5.39478 a 23.200744,23.763694 0 0 1 5.91784,-0.68717 20.136684,20.625287 0 0 1 10.85438,3.07687 22.439736,22.98422 0 0 1 7.22958,8.01012 42.446247,43.476176 0 0 1 4.2957,11.28186 81.007346,82.972933 0 0 1 2.00265,13.07669 157.66893,161.49466 0 0 1 -0.10013,24.77907 q -0.0801,1.0769 -0.16021,2.05124 m -1.93257,-12.45107 a 154.46469,158.21267 0 0 1 -1.00132,15.88691 c -0.36048,3.16918 -0.751,5.80503 -1.0514,7.6409 -0.15019,0.92306 -0.28037,1.64099 -0.37049,2.13329 l -0.11014,0.56409 v 0.14359 0 0 c -16.31162,-0.88203 -32.75341,-2.05124 -49.7259,-3.69224 v 0 c 0,0 -0.11014,-0.53333 -0.29038,-1.48716 m 20.68741,-2.45124 q -8.01061,0 -15.90107,-0.17435 v 0 c 0,0 -0.74098,-4.1948 -1.31174,-10.58444 a 147.79585,151.38201 0 0 1 -0.35046,-23.73292 86.454565,88.552324 0 0 1 1.75232,-12.89209 48.584381,49.763247 0 0 1 3.00398,-9.61009 m -13.76824,44.57359 q 0,-0.94357 0,-1.94868 a 146.19373,149.74102 0 0 1 1.16154,-23.1996 71.09421,72.819261 0 0 1 2.59343,-11.9998 37.229334,38.132678 0 0 1 4.75631,-10.25623 20.777533,21.281686 0 0 1 7.57003,-6.95373 20.397029,20.891949 0 0 1 11.07467,-2.05124 22.099285,22.635508 0 0 1 11.12474,3.9589 27.246105,27.907213 0 0 1 7.71022,8.84088 l 0.31041,0.54358 m -21.55857,-8.1332 a 23.411023,23.979075 0 0 1 3.22428,-0.17435 19.66606,20.143244 0 0 1 10.53396,3.07687 22.249484,22.789352 0 0 1 7.06936,7.81525 41.985637,43.004389 0 0 1 4.24563,10.96391 78.153565,80.049906 0 0 1 2.05272,12.50235 139.18444,142.56165 0 0 1 0.0701,23.2714 c -0.2303,3.16917 -0.51067,5.80503 -0.73097,7.65115 -0.11014,0.92306 -0.21027,1.65125 -0.28037,2.14355 l -0.0801,0.56409 v 0.14359 0 0 l -8.29099,-0.41025 m 11.80564,-23.13806 c -0.18023,2.27688 -0.3805,4.41018 -0.60079,6.34861 -0.36048,3.34353 -0.751,6.15374 -1.00133,8.0614 -0.1502,0.97434 -0.27036,1.7333 -0.36048,2.25637 l -0.10013,0.59486 v 0.15384 0 0 c -16.21148,0 -32.3028,-0.30768 -48.70454,-0.41025 v 0 c 0,0 -0.77102,-4.10249 -1.47195,-10.25623 -0.28037,-2.45124 -0.55073,-5.21017 -0.77102,-8.20499 m 5.2069,12.82029 c -0.13017,-1.83586 -0.32043,-5.02555 -0.44059,-8.99471 a 163.50667,167.47404 0 0 1 0.62083,-22.7073 71.895271,73.63976 0 0 1 2.08276,-11.70237 35.046441,35.896819 0 0 1 4.1555,-9.92803 18.334296,18.779164 0 0 1 6.91917,-6.6563 17.473154,17.897128 0 0 1 10.2636,-1.68202 19.395702,19.866325 0 0 1 10.20352,4.32813 20.517188,21.015023 0 0 1 1.64218,1.52818 m -26.69537,5.0153 a 19.555914,20.030425 0 0 1 10.57401,-2.58457 20.537215,21.035536 0 0 1 10.83435,3.28199 24.622628,25.220079 0 0 1 7.50996,8.20499 49.125098,50.317084 0 0 1 4.9065,11.48698 99.06127,101.46492 0 0 1 3.00398,13.33311 202.98899,207.91438 0 0 1 2.22294,25.43546 c 0.0501,1.47689 0.0901,2.86148 0.12016,4.10249 m -1.12148,-26.32775 c 0.25033,6.82039 0.0801,13.23054 -0.18024,18.29712 -0.17023,3.30251 -0.38051,6.04092 -0.54072,7.94858 -0.0801,0.95383 -0.16021,1.71279 -0.21028,2.21535 l -0.0601,0.5846 v 0.15384 0 0 c -14.67945,-0.24614 -28.9083,-0.78973 -42.67655,-1.16921 m 18.36434,-12.37927 q -9.1321,-0.70768 -18.24418,-1.02562 v 0 c 0,0 -0.75099,-4.29737 -1.37182,-10.58444 a 146.35394,149.90512 0 0 1 -0.6809,-22.68679 74.799119,76.614068 0 0 1 1.47195,-11.88697 37.419586,38.327546 0 0 1 3.5447,-10.25624 22.099285,22.635508 0 0 1 2.35312,-3.57942 m -8.46122,62.69636 c -0.20026,-1.49741 -0.42055,-3.27174 -0.61081,-5.26145 a 112.72938,115.46468 0 0 1 -0.0801,-22.56372 66.007469,67.609095 0 0 1 2.1929,-11.88697 36.428273,37.312179 0 0 1 4.46592,-10.25624 20.226803,20.717593 0 0 1 7.28966,-6.98449 19.155384,19.620176 0 0 1 10.70419,-2.05125 19.966458,20.450931 0 0 1 10.59404,3.9384 22.369643,22.912427 0 0 1 5.19688,5.70246 m -19.43575,-11.71262 a 22.509829,23.056014 0 0 1 6.85909,-1.02562 19.305583,19.774019 0 0 1 10.56399,2.92303 20.527201,21.02528 0 0 1 6.84908,7.70243 37.169255,38.071141 0 0 1 3.74496,10.84084 66.558199,68.173187 0 0 1 1.25166,12.36902 115.33283,118.1313 0 0 1 -2.00265,22.97396 c -0.56074,3.07687 -1.1315,5.71272 -1.57208,7.52808 -0.2203,0.90254 -0.40054,1.62048 -0.52069,2.10252 l -0.1502,0.55384 v 0.14359 0 0 l -12.34636,-0.77948 m 16.97249,-16.69715 c -0.0901,2.60509 -0.2203,5.03582 -0.37049,7.17937 -0.23031,3.33327 -0.50067,6.15374 -0.72096,8.05114 -0.11015,0.97434 -0.20027,1.73331 -0.27036,2.25637 l -0.0801,0.59487 v 0.15384 0 0 c -15.56062,0 -30.97105,0 -46.23127,0.23589 v 0 c 0,0 -0.48063,-4.05121 -0.64085,-10.03059 a 112.14861,114.86982 0 0 1 1.26168,-21.5381 l 0.0901,-0.51281" />
  <path
     style="fill:none;stroke:#ffffff;stroke-width:2.02680469px"
     inkscape:connector-curvature="0"
     id="path3849"
     class="cls-6"
     d="m 179.73562,177.22263 a 16.521894,16.922786 0 0 1 -3.56472,6.10246 15.50054,15.87665 0 0 1 -11.0146,5.12812 15.200142,15.568963 0 0 1 -11.08469,-4.60505 15.650739,16.030494 0 0 1 0.21028,-22.79961 15.730846,16.112544 0 0 1 3.6949,-2.72816 m -2.33309,18.98429 a 15.550607,15.927931 0 0 1 4.35577,-9.98957 15.820965,16.20485 0 0 1 11.34503,-4.89222 17.142717,17.558673 0 0 1 11.75558,4.71787 16.722159,17.127911 0 0 1 5.31705,11.41518 15.780912,16.163825 0 0 1 -1.00133,6.81014 m 1.30172,-6.72809 a 16.251536,16.645868 0 0 1 -2.65351,3.78455 15.961151,16.348437 0 0 1 -11.42514,5.06658 17.18277,17.599698 0 0 1 -17.22282,-16.2869 15.861018,16.245875 0 0 1 3.59476,-11.61005 14.389068,14.738208 0 0 1 1.57208,-1.641 m -11.5453,22.73807 a 16.602,17.004836 0 0 1 16.28158,-15.4664 17.12269,17.53816 0 0 1 11.83568,4.56402 16.421761,16.820224 0 0 1 5.40717,11.28186 14.899744,15.261276 0 0 1 -3.65485,11.28186 12.246228,12.543374 0 0 1 -8.74158,4.30762 m 10.32368,-12.46133 a 15.921098,16.307412 0 0 1 -3.00398,4.33839 15.10001,15.466401 0 0 1 -11.0947,4.62556 15.350341,15.722807 0 0 1 -11.0146,-5.12812 16.66208,17.066373 0 0 1 -4.36578,-11.99979 17.743513,18.174047 0 0 1 5.00663,-12.17415 18.524548,18.974033 0 0 1 8.01062,-5.05632 m -10.32368,14.19463 a 15.961151,16.348437 0 0 1 3.89516,-5.92811 16.602,17.004836 0 0 1 11.01459,-4.69735 14.439134,14.789489 0 0 1 10.6341,4.23582 13.337674,13.661304 0 0 1 3.88514,10.687 14.138736,14.481802 0 0 1 -5.59741,10.47161 q -0.56075,0.44102 -1.17156,0.84101 m 5.67753,-4.59479 a 16.091323,16.481768 0 0 1 -4.61612,10.10239 14.939797,15.302301 0 0 1 -11.03462,4.51274 15.410421,15.784344 0 0 1 -10.95452,-5.32298 17.022557,17.435598 0 0 1 -4.33574,-12.17415 18.023884,18.461221 0 0 1 2.76366,-9.36394 m -4.38581,8.86138 a 15.330315,15.702294 0 0 1 -0.70093,-5.12811 16.341655,16.738174 0 0 1 4.89649,-11.44596 17.212809,17.630466 0 0 1 11.37507,-5.12812 15.810952,16.194593 0 0 1 11.32501,4.1025 14.308961,14.656158 0 0 1 4.71625,9.44599 m -5.32706,-11.0152 q 0.32042,0.27692 0.62082,0.57435 a 15.019904,15.384351 0 0 1 4.44589,11.16904 17.12269,17.53816 0 0 1 -15.36035,17.20996 13.668112,13.999759 0 0 1 -10.58403,-3.50763 12.426467,12.727986 0 0 1 -4.00531,-10.15367 12.92713,13.240798 0 0 1 2.78369,-7.4768 m 27.35625,19.67146 a 15.650739,16.030494 0 0 1 -4.23561,6.7486 14.779585,15.138201 0 0 1 -11.12474,4.04096 15.200142,15.568963 0 0 1 -10.67415,-5.80503 17.813606,18.24584 0 0 1 -3.91518,-12.68696 20.507175,21.004767 0 0 1 5.54735,-13.04593 23.190731,23.753438 0 0 1 10.62408,-6.68707 m -14.86971,11.87672 a 17.022557,17.435598 0 0 1 4.00531,-6.83065 15.480514,15.856138 0 0 1 11.21486,-4.82043 15.089996,15.456145 0 0 1 11.0146,5.06658 16.471828,16.871505 0 0 1 4.3057,11.95877 17.593314,18.020203 0 0 1 -5.00663,12.0921 18.324282,18.768908 0 0 1 -4.35577,3.3743" />
  <path
     style="fill:#df5454;stroke-width:1.0314523"
     inkscape:connector-curvature="0"
     id="path2823"
     class="cls-2"
     d="m 67.667115,300.44103 c 0,128.32684 98.029905,232.38654 218.980175,232.38654 V 300.44103 Z" />
  <path
     style="fill:none;stroke:#ffffff;stroke-width:1.01340234"
     inkscape:connector-curvature="0"
     id="path3851"
     class="cls-3"
     d="m 146.80198,366.94245 c -0.1502,3.95891 -0.25033,9.36394 -0.0601,15.38435 a 124.59511,127.61832 0 0 0 1.91253,19.48685 c 1.21161,6.49219 3.13416,12.63568 6.19822,17.43559 6.08807,9.52805 8.71154,15.06641 9.85306,18.21508 1.14151,3.14866 0.78103,3.90762 0.77102,3.92813 v 0 l 7.65013,0.0718 m -14.1287,-22.86115 a 61.661711,63.157889 0 0 1 3.93522,7.78448 c 1.23163,3.07687 0.89118,3.83583 0.88116,3.84609 v 0 c 21.02787,-0.15384 42.92689,0.18461 65.08625,0.63589 m -23.27083,6.22553 c 15.87103,-0.28717 32.49305,-0.64614 49.38544,-1.25126 v 0 a 29.278799,29.989228 0 0 1 -4.86645,-5.87682 c -2.82374,-4.17429 -6.40849,-10.84084 -9.56267,-20.93298 m 13.6581,19.29198 c -3.27434,-5.48708 -7.15949,-14.01001 -10.24358,-26.66621 a 180.23884,184.61221 0 0 1 -5.2069,-32.63533 c -0.24032,-3.87686 -0.26034,-6.90245 -0.22029,-8.9537 0,-1.02562 0.0601,-1.81535 0.0901,-2.33842 0,-0.26666 0,-0.46153 0,-0.60512 v -0.20512 0 c -9.01194,0.13333 -17.8837,0.30769 -26.66534,0.59486 m 18.4845,-8.0614 c 0,-0.31794 0,-0.5846 0,-0.81024 0,-0.22564 0,-0.48204 0,-0.62563 0,-0.14359 0,-0.12308 0,-0.1641 v -0.0513 0 c -30.24007,-0.71794 -57.40607,-0.84101 -83.32041,-1.92817 m 22.32959,7.02552 c -8.82169,0.24615 -17.40306,0.20512 -25.78417,-0.0615 v 0 c 0,0 -0.31041,2.49226 -0.52069,6.44091 a 116.15392,118.97231 0 0 0 0.1502,15.1382 78.423923,80.326825 0 0 0 3.27434,17.85611 41.765345,42.778752 0 0 0 5.49728,11.78441 m -13.47786,-41.42493 a 123.16321,126.15168 0 0 0 -0.52069,12.61517 90.199527,92.388156 0 0 0 2.08276,19.55864 c 1.45193,6.44091 3.775,12.47158 7.27965,17.13817 3.50464,4.66658 6.08807,8.28703 8.01061,11.16903 a 61.471458,62.963021 0 0 1 3.85511,6.4922 c 1.51201,3.07687 1.23163,3.78455 1.22162,3.80506 v 0 l 5.30703,-0.10256 m -4.82639,-16.25613 a 54.692475,56.01955 0 0 1 4.24562,8.04089 c 1.2817,3.07687 0.93124,3.88711 0.92123,3.89737 v 0 c 20.57726,0.1641 40.2233,1.17946 59.35865,2.85123 m -16.79225,1.28203 c 17.42309,0.3282 34.28543,0 50.90746,-0.73845 v 0 c 0,0 -2.93389,-2.34868 -6.82905,-8.35883 -3.89516,-6.01015 -8.81167,-15.7023 -12.79696,-30.6046 q -0.92122,-3.43584 -1.68222,-6.67681 m 12.01592,24.92265 a 85.042694,87.106195 0 0 1 -7.20956,-19.19967 138.90407,142.27448 0 0 1 -4.69622,-32.05073 c -0.11014,-3.80507 0,-6.76912 0.11015,-8.77934 0.0601,-1.02562 0.13017,-1.77433 0.18024,-2.28714 0,-0.25641 0,-0.45128 0.0601,-0.58461 v -0.15384 -0.0513 0 c -9.82302,0.36922 -19.53589,0.85127 -29.18868,1.55895 m 21.19809,1.12818 c -27.40632,0.43076 -57.07564,0 -86.26432,-0.51281 v 0 c 0,0 0,0.22564 -0.0901,0.6564 m 15.58065,-6.15374 c -6.58873,0.18461 -13.30763,0.2564 -20.12667,0.23589 v 0 c 0,0 -0.32042,2.56406 -0.62082,6.64604 -0.3004,4.08198 -0.62082,9.69214 -0.59078,15.80486 a 104.91903,107.46482 0 0 0 1.55205,18.96378 c 1.14151,6.20502 3.00398,11.99979 6.13814,16.40997 3.58475,5.12812 6.00796,9.01523 7.67016,11.928 m -17.15273,-54.9529 c -0.11015,3.84609 -0.1502,8.646 0.0801,13.90745 a 123.67389,126.67475 0 0 0 2.37314,20.51247 c 1.4319,6.89219 3.63482,13.48695 7.00929,18.75865 3.37447,5.27171 5.78767,9.44599 7.56002,12.76901 a 69.331875,71.014164 0 0 1 3.58475,7.53833 c 1.38183,3.53841 1.07142,4.38967 1.07142,4.41019 v 0 q 6.95922,0.92306 14.01857,2.05124 m -12.3764,-16.34843 c 0.93124,2.05124 1.56207,3.56916 2.00266,4.78966 1.14151,3.27174 0.78103,4.10249 0.78103,4.10249 v 0 c 22.27953,1.11793 44.92954,2.16407 66.84859,4.61531 m -14.71951,-6.62553 c 15.06997,-0.42051 29.81952,-0.4923 44.2987,-0.44102 v 0 a 36.047768,36.922442 0 0 1 -6.73893,-7.46654 c -3.88515,-5.35375 -8.82169,-13.94848 -13.22753,-27.02517 m 7.73025,22.02013 a 87.63613,89.76256 0 0 1 -7.50995,-20.22529 140.70646,144.1206 0 0 1 -4.56605,-32.26612 c -0.0901,-3.82557 0,-6.79988 0.15019,-8.82036 0.0601,-1.02562 0.14019,-1.78458 0.19026,-2.30765 0,-0.25641 0,-0.46153 0.0701,-0.59486 v -0.15385 -0.0513 0 c -9.75292,0.30769 -19.37568,0.70768 -28.90831,1.26152 m 26.21474,-1.61023 c -28.41766,0.61538 -57.73651,-1.35382 -86.79502,-4.69735 v 0 a 115.39291,118.19284 0 0 0 -1.22161,14.54334 M 144.1585,349.3735 a 166.22027,170.25348 0 0 0 -0.91121,21.59963 112.5191,115.2493 0 0 0 2.00265,20.27657 c 1.35179,6.74861 3.50465,13.1485 6.81904,18.19456 6.58873,10.04086 9.60272,15.9587 10.95452,19.31249 1.35179,3.35379 1.00132,4.16403 1.00132,4.18455 v 0 q 11.0146,0.85126 22.08927,1.99996 M 159.07825,419.0954 a 51.698508,52.952936 0 0 1 2.30305,4.87171 c 1.29171,3.07687 1.00133,3.87686 1.00133,3.89737 v 0 c 26.37495,0 53.69114,-0.7487 82.19892,-1.97945 m -34.04511,9.99983 c 13.89841,-0.30769 27.76679,-0.4923 41.78537,-0.67692 v 0 c 0,0 -2.73362,-2.25637 -6.13814,-8.01012 a 66.688372,68.306518 0 0 1 -5.33707,-11.44595 96.217502,98.552153 0 0 1 -4.62613,-17.7638 c -0.92122,-5.41529 -1.512,-10.46136 -1.86247,-15.10743 m 7.29968,26.19442 c -1.12149,-3.31276 -2.21294,-6.99475 -3.23429,-11.09725 A 197.06113,201.84269 0 0 1 232.846,364.3066 c -0.3004,-4.0307 -0.3805,-7.17937 -0.3805,-9.32292 0,-1.02562 0,-1.8974 0,-2.45124 0,-0.27692 0,-0.48204 0,-0.62563 0,-0.14359 0,-0.12307 0,-0.1641 v -0.0513 0 c -15.01991,-0.50256 -30.03981,-1.19998 -45.05971,-2.18458 m 32.04246,1.21024 c -25.79418,-1.26152 -50.06635,-0.31795 -73.96802,0.92306 v 0 a 168.70356,172.79703 0 0 0 -0.10013,23.94831 c 0.14018,2.2256 0.33043,4.51274 0.59078,6.83065 m -2.82374,-22.22526 a 159.3011,163.16643 0 0 0 -0.62083,16.86125 96.567966,98.911121 0 0 0 1.83243,18.71762 c 1.27169,6.09221 3.32441,11.71262 6.52865,15.94845 3.20425,4.23582 5.49729,7.47679 7.1695,10.04085 a 47.26263,48.409424 0 0 1 3.32441,5.77426 c 1.26167,2.69739 0.92122,3.36405 0.91121,3.3743 v 0 q 10.7943,-1.42561 21.59862,-3.28199 m -30.12993,1.5692 c 0.53071,1.09742 0.93124,2.05125 1.24165,2.81021 1.2116,3.07687 0.87115,3.82557 0.86114,3.84609 v 0 c 31.95234,-0.27692 65.62696,-0.0718 99.52188,-0.25641 v 0 a 13.53794,13.866428 0 0 1 -1.14151,-1.11793 m -27.33623,-8.95369 c 10.23356,0.44102 20.27687,0.84101 30.19001,1.3128 v 0 a 33.384239,34.194284 0 0 1 -6.67885,-7.35372 71.67498,73.414123 0 0 1 -6.20823,-10.50239 105.70007,108.26481 0 0 1 -6.28833,-16.04075 165.08877,169.09453 0 0 1 -5.37713,-22.20474 m 9.01194,28.22515 -0.26034,-0.92306 a 174.23088,178.45847 0 0 1 -6.06804,-32.74815 c -0.33044,-3.8666 -0.43057,-6.86142 -0.44059,-8.90241 0,-1.02563 0,-1.79485 0,-2.32817 0,-0.26666 0,-0.46153 0,-0.59486 v -0.1641 0 q -15.30027,0.31794 -30.74073,0.85127 m 19.48582,3.01533 c -25.40366,-0.78973 -51.06767,-0.58461 -76.45131,-0.61537 v 0 a 142.629,146.0898 0 0 0 -0.90119,15.67152" />
  <path
     style="fill:none;stroke:#ffffff;stroke-width:1.01340234"
     inkscape:connector-curvature="0"
     id="path3859"
     class="cls-3"
     d="m 169.55213,394.08045 q 6.70889,8.04088 13.60803,16.10228 c 8.35107,-8.14345 16.82229,-16.29715 25.32356,-24.53291 m -35.50705,-0.0513 q 6.25829,7.17936 12.62673,14.69718 c 10.57401,-9.75368 21.30823,-19.05608 32.18264,-28.08157 m -42.23596,18.76891 q 7.59005,8.67678 15.08999,17.33304 13.32766,-12.78953 26.51514,-25.78417 m -40.20328,11.89723 12.77693,15.20999 c 8.29099,-7.78448 16.38171,-15.81511 24.34226,-23.98933 m -49.06502,1.44613 q 8.39112,9.76393 16.95247,19.59966 15.5506,-14.28693 31.58185,-28.49181" />
  <path
     style="fill:none;stroke:#ffffff;stroke-width:21.70749283px;stroke-miterlimit:10"
     inkscape:connector-curvature="0"
     class="cls-1"
     d="m 293.09882,542.13436 c -130.56976,0 -236.409027,-108.40739 -236.409027,-242.1673 0,-133.75993 105.839267,-242.1014 236.409027,-242.1014"
     id="path30" />
  <line
     style="fill:none;stroke:#ffffff;stroke-width:6.08041382px;stroke-miterlimit:10"
     class="cls-7"
     x1="64.172485"
     y1="300"
     x2="286.64731"
     y2="300.22565"
     id="line32" />
  <line
     style="fill:none;stroke:#ffffff;stroke-width:22.12372971px;stroke-miterlimit:10"
     y1="22.323874"
     class="cls-1"
     x1="284.90497"
     x2="284.90497"
     y2="577.67615"
     id="line34" />
  <path
     id="path4622"
     d="m 306.59759,542.13436 c 130.5699,0 236.40917,-108.40739 236.40917,-242.1673 0,-133.75993 -105.83927,-242.1014 -236.40917,-242.1014"
     class="cls-1"
     inkscape:connector-curvature="0"
     style="fill:none;stroke:#ffffff;stroke-width:21.70749283px;stroke-miterlimit:10" />
  <line
     id="line4624"
     y2="577.67615"
     x2="315.56979"
     x1="315.56979"
     class="cls-1"
     y1="22.323874"
     style="fill:none;stroke:#ffffff;stroke-width:22.12372971px;stroke-miterlimit:10" />
  <circle
     style="fill:none;stroke:#000000;stroke-width:0.0066468;stroke-miterlimit:4;stroke-dasharray:none;stroke-opacity:1"
     id="path4603"
     cx="300"
     cy="300"
     r="4.4221349" />
</svg>
