<?xml version="1.0" encoding="UTF-8" standalone="no"?>
<svg
   xmlns:dc="http://purl.org/dc/elements/1.1/"
   xmlns:cc="http://creativecommons.org/ns#"
   xmlns:rdf="http://www.w3.org/1999/02/22-rdf-syntax-ns#"
   xmlns:svg="http://www.w3.org/2000/svg"
   xmlns="http://www.w3.org/2000/svg"
   xmlns:sodipodi="http://sodipodi.sourceforge.net/DTD/sodipodi-0.dtd"
   xmlns:inkscape="http://www.inkscape.org/namespaces/inkscape"
   id="Layer_1"
   data-name="Layer 1"
   viewBox="0 0 600.00001 600.00001"
   version="1.1"
   sodipodi:docname="SWK-Magdeburg_schwarz.svg"
   width="600"
   height="600"
   inkscape:version="0.92.4 (5da689c313, 2019-01-14)">
  <metadata
     id="metadata41">
    <rdf:RDF>
      <cc:Work
         rdf:about="">
        <dc:format>image/svg+xml</dc:format>
        <dc:type
           rdf:resource="http://purl.org/dc/dcmitype/StillImage" />
        <dc:title>SWK-Magdeburg1</dc:title>
      </cc:Work>
    </rdf:RDF>
  </metadata>
  <sodipodi:namedview
     pagecolor="#ffffff"
     bordercolor="#666666"
     borderopacity="1"
     objecttolerance="10"
     gridtolerance="10"
     guidetolerance="10"
     inkscape:pageopacity="0"
     inkscape:pageshadow="2"
     inkscape:window-width="1920"
     inkscape:window-height="1007"
     id="namedview39"
     showgrid="false"
     units="px"
     width="800mm"
     inkscape:zoom="1.01"
     inkscape:cx="129.54197"
     inkscape:cy="367.2102"
     inkscape:window-x="-9"
     inkscape:window-y="-9"
     inkscape:window-maximized="1"
     inkscape:current-layer="Layer_1"
     inkscape:pagecheckerboard="true" />
  <defs
     id="defs4">
    <style
       id="style2">.cls-1,.cls-3,.cls-4,.cls-6,.cls-7{fill:none;}.cls-1,.cls-7{stroke:#231f20;stroke-miterlimit:10;}.cls-1{stroke-width:20px;}.cls-2{fill:#df5454;}.cls-3,.cls-4,.cls-6{stroke:#fff;}.cls-4{stroke-width:0.45px;}.cls-5{fill:#ebb847;}.cls-6{stroke-width:2px;}.cls-7{stroke-width:6px;}</style>
  </defs>
  <title
     id="title6">SWK-Magdeburg1</title>
  <g
     id="g65"
     transform="matrix(1.0013269,0,0,1.0256234,8.178284,45.614639)">
    <circle
       id="circle8"
       r="45.919998"
       cy="248.03"
       cx="55.919998"
       class="cls-1"
       style="fill:none;stroke:#231f20;stroke-width:20px;stroke-miterlimit:10" />
    <circle
       id="circle10"
       r="45.919998"
       cy="248.03"
       cx="526.95001"
       class="cls-1"
       style="fill:none;stroke:#231f20;stroke-width:20px;stroke-miterlimit:10" />
    <path
       d="M 526.79,248.46 C 526.79,121.89224 428.89,19.258971 308.1,19.258971 V 248.46 Z"
       class="cls-2"
       id="path3609"
       inkscape:connector-curvature="0"
       style="fill:#df5454;stroke-width:1.02367961" />
    <path
       d="m 386.61,123 c 17.82,-0.57 34.74,-0.56 51.36,-0.41 a 18.14,18.14 0 0 1 17.83,18.78 m -10.56,-26.19 a 18.56,18.56 0 0 1 9.26,16.12 q 0.07,13.4 0.5,27 a 18.6,18.6 0 0 1 -13.49,18.74 m 5.56,-3.25 a 19.43,19.43 0 0 1 -16.85,9.08 c -18.46,-0.41 -36.21,-1 -54,-2 m 22.28,2.77 c -6.24,0.22 -12.57,0.38 -19,0.49 A 18.16,18.16 0 0 1 361.09,165.7 c 0.07,-8.86 0.12,-17.73 0.25,-26.52 a 18.07,18.07 0 0 1 9.29,-15.53 m -17,15.11 q -0.12,-4.12 -0.16,-8.22 A 18.75,18.75 0 0 1 359.1,117 20,20 0 0 1 373,111.28 c 16.55,-0.26 33.8,-0.54 51.43,-1.11 m -38.29,6.46 a 471.65,471.65 0 0 0 49.19,-1.44 21,21 0 0 1 13.87,3.75 17.3,17.3 0 0 1 7.11,10.8 m -15.86,-10.61 a 19.13,19.13 0 0 1 8.5,15.81 c 0.08,8.9 0.38,17.77 0.85,26.6 a 17.78,17.78 0 0 1 -4.41,12.89 16,16 0 0 1 -11.79,5.38 m 19.24,-11.35 a 18.76,18.76 0 0 1 -14.85,7.44 c -17.77,0.26 -36.24,1.16 -55.11,2.57 m 13.78,1.18 q -9.53,0.18 -19.29,0.08 c -10.38,-0.1 -18.87,-8.74 -19.09,-19.6 -0.19,-9.34 -0.44,-18.8 -0.71,-28.35 a 20.91,20.91 0 0 1 6,-15.43 m -3.32,22.39 q -0.09,-4.43 -0.12,-8.9 c -0.07,-10 8.45,-18.18 19.17,-17.9 17.91,0.46 36.29,0.95 54.86,2.12 m -48.55,1 c 17.22,0.24 33.66,0.18 49.89,0 a 18.06,18.06 0 0 1 18.37,18.37 q 0,1.68 0,3.35 m -12,-23.12 a 19.43,19.43 0 0 1 7.59,14.91 c 0.16,9 0.15,17.75 0,26.42 -0.12,10.09 -8.71,18.08 -19.34,17.54 Q 421.54,172.09 413,171.6 m 23,6.3 a 18.14,18.14 0 0 1 -7.06,1.59 534.63,534.63 0 0 0 -56.07,4.09 c -6.26,0.8 -11.71,-1.63 -14.76,-5.65 m 22,1 -2.71,0.13 c -10.79,0.5 -19.4,-7.5 -19.69,-17.35 -0.25,-8.47 -0.5,-16.87 -0.84,-25.09 a 15.23,15.23 0 0 1 4.7,-11.79 m -3,8.72 q 0,-0.87 0,-1.74 c 0,-10.68 8.33,-19.14 18.49,-19.17 15.55,0 30.75,0.15 45.69,0.24 m -45.47,2.75 c 18.38,0.53 37.53,0.79 57.16,1.28 a 21.31,21.31 0 0 1 20.63,19.83 q 0.22,3.17 0.45,6.36 m -9.44,-23.56 a 19.17,19.17 0 0 1 9.17,16 q 0.1,13.18 0,25.73 a 16.13,16.13 0 0 1 -5.55,12.19 17.38,17.38 0 0 1 -13.36,4.08 q -10.92,-1.14 -21.8,-2.55 m 26.68,0 a 19,19 0 0 1 -6.47,1.31 c -19.15,0.48 -38.16,1.09 -57,2.28 a 17.29,17.29 0 0 1 -12.93,-4.45 15.46,15.46 0 0 1 -5,-12 q 0.07,-1.85 0.15,-3.7 m 11.7,15.72 A 18,18 0 0 1 358.1,155.93 q 0.4,-13.58 1.19,-27.41 a 20.7,20.7 0 0 1 6.49,-13.8 22.4,22.4 0 0 1 14.56,-6.11 l 1.21,-0.05 m -29,18.12 a 20.07,20.07 0 0 1 16.66,-9.28 c 19.91,-0.3 39.94,-0.48 60.77,-1 a 22.2,22.2 0 0 1 13.43,4.09 m -64.14,-4 c 17.78,-0.21 35.24,-0.51 52.57,-1.1 A 17.42,17.42 0 0 1 450.29,133 q -0.1,5.82 -0.21,11.58 m -1.86,-24.29 a 17.59,17.59 0 0 1 5,12.62 c -0.06,8.8 0.06,17.83 0.3,27 0.27,10.68 -7.75,19.45 -17.66,19.95 -8.62,0.44 -17.18,0.91 -25.74,1.33 m 25.76,1.42 q -0.82,0.06 -1.66,0 c -19.19,-0.37 -38.42,-1.37 -57.65,-3.33 a 20.12,20.12 0 0 1 -13.29,-7.19 23.68,23.68 0 0 1 -5.48,-15.4 q 0,-3.36 0,-6.75 m 4.6,30.35 a 18.85,18.85 0 0 1 -10.77,-17.1 q 0.07,-13.48 0.47,-26.9 A 19.63,19.63 0 0 1 372,117.53 q 11.44,0 23,-0.08"
       class="cls-3"
       id="rect3824"
       inkscape:connector-curvature="0"
       style="fill:none;stroke:#ffffff" />
    <path
       d="m 387.48,202.12 c 17.66,-0.57 34.45,-0.56 50.93,-0.42 a 62.73,62.73 0 0 1 12.8,1.27 16.36,16.36 0 0 1 3.85,1.29 3.82,3.82 0 0 1 1,0.75 1.14,1.14 0 0 1 0.35,0.8 q -0.1,2.83 -0.2,5.65 a 1.21,1.21 0 0 1 -0.41,0.8 4.28,4.28 0 0 1 -1.13,0.75 13.44,13.44 0 0 1 -2.13,0.79 m -6.05,-21.35 c 1,0.13 2,0.28 2.91,0.46 a 16.71,16.71 0 0 1 3.93,1.19 3.89,3.89 0 0 1 1.07,0.72 1.12,1.12 0 0 1 0.37,0.78 q 0,2.77 0,5.55 a 1.14,1.14 0 0 1 -0.38,0.79 4,4 0 0 1 -1.08,0.73 17.52,17.52 0 0 1 -4,1.24 68.92,68.92 0 0 1 -13,1.19 c -12.11,0.09 -24,0.31 -35.78,0.57 m 9,5.73 c -12.39,-0.2 -24.39,-0.44 -36.17,-0.79 a 63.29,63.29 0 0 1 -13,-1.58 16.88,16.88 0 0 1 -3.9,-1.4 4,4 0 0 1 -1.05,-0.79 A 1.21,1.21 0 0 1 355,206 q 0.06,-2.91 0.14,-5.83 a 1.27,1.27 0 0 1 0.4,-0.83 4.4,4.4 0 0 1 1.12,-0.8 19.05,19.05 0 0 1 4.1,-1.45 61.51,61.51 0 0 1 7.39,-1.33 m -7.05,9.5 q 0.07,-1.46 0.13,-2.92 a 1.13,1.13 0 0 1 0.41,-0.76 4.16,4.16 0 0 1 1.14,-0.7 18.71,18.71 0 0 1 4.14,-1.13 74.46,74.46 0 0 1 13.54,-0.87 c 19.47,0.31 38.48,0.34 57.9,0.71 a 68.17,68.17 0 0 1 13.51,1.46 c 0.66,0.15 1.28,0.32 1.84,0.49 m -71,-10.48 c 15.48,-0.39 31.92,-0.59 49,-0.88 a 81,81 0 0 1 14.28,0.88 20.75,20.75 0 0 1 4.38,1.15 4.61,4.61 0 0 1 1.21,0.7 1.22,1.22 0 0 1 0.47,0.77 q 0.28,2.73 0.58,5.44 a 1,1 0 0 1 -0.28,0.77 3.2,3.2 0 0 1 -0.94,0.7 13.5,13.5 0 0 1 -3.52,1.11 37.11,37.11 0 0 1 -4.56,0.59 m 6.67,-4.94 a 12.46,12.46 0 0 1 1.91,0.8 4,4 0 0 1 1.05,0.76 1.17,1.17 0 0 1 0.36,0.81 q -0.06,2.84 -0.08,5.65 a 1.16,1.16 0 0 1 -0.38,0.79 4,4 0 0 1 -1.09,0.73 16.79,16.79 0 0 1 -4,1.21 56.91,56.91 0 0 1 -13,0.76 c -15.18,-0.68 -29.7,-2.16 -43.88,-4.13 m 10.36,4 c -9.57,0 -18.86,0 -27.92,-0.11 a 61.06,61.06 0 0 1 -12.72,-1.28 15.72,15.72 0 0 1 -3.78,-1.3 3.71,3.71 0 0 1 -1,-0.75 1.13,1.13 0 0 1 -0.33,-0.8 q 0.15,-2.83 0.33,-5.67 a 1.25,1.25 0 0 1 0.43,-0.8 4.5,4.5 0 0 1 1.17,-0.76 19.84,19.84 0 0 1 4.27,-1.31 79.5,79.5 0 0 1 14.22,-1.4 h 2 M 366.23,192 c 0.49,-0.14 1,-0.27 1.6,-0.39 a 63.16,63.16 0 0 1 13.29,-1.12 c 18.38,0.21 36,1.13 53.17,2.6 m -47.9,1.18 c 16.71,0.3 32.87,0 48.8,-0.71 a 68.18,68.18 0 0 1 12.88,0.48 16.17,16.17 0 0 1 3.87,1 3.57,3.57 0 0 1 1,0.66 1,1 0 0 1 0.35,0.74 q -0.08,2.62 -0.16,5.24 a 1.05,1.05 0 0 1 -0.4,0.73 3.92,3.92 0 0 1 -1.12,0.65 17.62,17.62 0 0 1 -4.12,1 65.65,65.65 0 0 1 -12,0.27 m 19.17,-12 a 3.48,3.48 0 0 1 0.7,0.58 1.23,1.23 0 0 1 0.36,0.83 q 0,2.92 -0.07,5.83 a 1.24,1.24 0 0 1 -0.39,0.83 4.22,4.22 0 0 1 -1.09,0.79 17.81,17.81 0 0 1 -4,1.39 65.59,65.59 0 0 1 -13.08,1.55 c -18.77,0.54 -36.89,0.92 -54.74,2 -2.18,0.13 -4.27,0.19 -6.18,0.16 m 19.95,1.27 q -8.65,0.13 -17.6,0.15 a 64.5,64.5 0 0 1 -13.06,-1.16 17.38,17.38 0 0 1 -4,-1.27 4,4 0 0 1 -1.09,-0.74 1.17,1.17 0 0 1 -0.38,-0.8 q 0,-2.82 0,-5.64 a 1.16,1.16 0 0 1 0.37,-0.8 4,4 0 0 1 1.07,-0.75 17.3,17.3 0 0 1 3.95,-1.29 67.12,67.12 0 0 1 13,-1.32 l 18.78,-0.3 m -22.36,-5 c 19.43,0.49 37.84,0.13 56,-0.63 a 67.51,67.51 0 0 1 12.93,0.54 16.37,16.37 0 0 1 3.9,1 3.65,3.65 0 0 1 1.06,0.67 1,1 0 0 1 0.36,0.74 q -0.06,2.65 -0.11,5.29 a 1.06,1.06 0 0 1 -0.39,0.74 3.89,3.89 0 0 1 -1.11,0.66 17.43,17.43 0 0 1 -4.06,1 c -0.84,0.12 -1.75,0.23 -2.74,0.31 m -1.59,-4.36 c 1.18,0.16 2.28,0.35 3.26,0.57 a 18.18,18.18 0 0 1 4.13,1.32 4.29,4.29 0 0 1 1.13,0.76 1.23,1.23 0 0 1 0.41,0.81 q 0.09,2.87 0.17,5.76 a 1.19,1.19 0 0 1 -0.35,0.82 4,4 0 0 1 -1,0.78 17.39,17.39 0 0 1 -3.87,1.42 73.35,73.35 0 0 1 -12.86,1.89 c -15.83,1.1 -31.66,2.89 -47,5.5 M 407.89,207 c -10.21,0.48 -20.32,0.91 -30.43,1.43 a 74.68,74.68 0 0 1 -13.58,-0.4 18.19,18.19 0 0 1 -4.12,-1 4,4 0 0 1 -1.12,-0.65 1.05,1.05 0 0 1 -0.41,-0.73 q -0.09,-2.61 -0.19,-5.19 a 1,1 0 0 1 0.35,-0.72 3.44,3.44 0 0 1 1,-0.63 15.17,15.17 0 0 1 3.83,-0.91 54.15,54.15 0 0 1 11.73,0 m -13.63,-3.84 a 19,19 0 0 1 3.72,-1.21 63.92,63.92 0 0 1 13.14,-1.37 c 18.88,-0.22 37.24,0 55.2,0.12 1.49,0 2.94,0.06 4.32,0.15 m -56.11,2.63 c 17.11,0.49 34.89,0.75 53.09,1.18 a 73.41,73.41 0 0 1 13.9,1.51 19.66,19.66 0 0 1 4.24,1.38 4.58,4.58 0 0 1 1.17,0.78 1.29,1.29 0 0 1 0.43,0.82 q 0.18,2.89 0.37,5.8 a 1.17,1.17 0 0 1 -0.32,0.83 3.78,3.78 0 0 1 -1,0.79 15.93,15.93 0 0 1 -3.69,1.42 52.1,52.1 0 0 1 -7.16,1.35 m 8.19,-13.37 a 16.1,16.1 0 0 1 3.08,1.08 4.19,4.19 0 0 1 1.11,0.75 1.19,1.19 0 0 1 0.39,0.8 q 0,2.82 0.08,5.61 a 1.13,1.13 0 0 1 -0.37,0.79 3.87,3.87 0 0 1 -1.07,0.73 16.39,16.39 0 0 1 -3.95,1.2 59.37,59.37 0 0 1 -13.13,0.79 c -19.06,-0.74 -38.32,-2.44 -57.44,-4.71 a 75.55,75.55 0 0 1 -9.33,-1.68 m 26.82,1.69 q -9.5,0.23 -18.95,0.49 A 68.09,68.09 0 0 1 365,204 a 16.77,16.77 0 0 1 -3.94,-1.09 3.75,3.75 0 0 1 -1.07,-0.68 1.06,1.06 0 0 1 -0.37,-0.76 q 0,-2.69 0.08,-5.36 a 1.08,1.08 0 0 1 0.39,-0.75 3.9,3.9 0 0 1 1.1,-0.68 17.26,17.26 0 0 1 4.06,-1 65.7,65.7 0 0 1 13.46,-0.41 c 11.59,0.7 23.26,1.6 35,2.8 m -28.51,-6.58 c 16.58,0.15 33.55,-0.07 51,-0.54 a 79.71,79.71 0 0 1 14.05,0.71 19.91,19.91 0 0 1 4.3,1.09 4.4,4.4 0 0 1 1.19,0.68 1.16,1.16 0 0 1 0.45,0.76 q 0.22,2.69 0.47,5.36 a 1,1 0 0 1 -0.3,0.75 3.26,3.26 0 0 1 -1,0.68 14,14 0 0 1 -3.6,1.06 l -0.93,0.15 m -11.61,-2.3 0.83,0.14 a 18.17,18.17 0 0 1 4.13,1.16 4.13,4.13 0 0 1 1.13,0.71 1.14,1.14 0 0 1 0.41,0.77 l 0.19,5.49 a 1.08,1.08 0 0 1 -0.35,0.78 3.71,3.71 0 0 1 -1,0.71 16.18,16.18 0 0 1 -3.85,1.18 63.19,63.19 0 0 1 -12.71,1 c -18.34,-0.26 -36.4,-0.5 -53.54,-1.14 h -0.35 m 25.09,0.53 q -11.84,-0.14 -23.85,-0.36 a 66.73,66.73 0 0 1 -13.25,-1.43 17.81,17.81 0 0 1 -4,-1.35 4.18,4.18 0 0 1 -1.1,-0.77 1.22,1.22 0 0 1 -0.39,-0.82 q 0,-2.88 -0.06,-5.76 a 1.2,1.2 0 0 1 0.37,-0.82 4.08,4.08 0 0 1 1.07,-0.78 17.55,17.55 0 0 1 3.94,-1.39 69.42,69.42 0 0 1 13,-1.67 q 12.58,-0.56 25.14,-1.38"
       class="cls-4"
       id="path3829"
       inkscape:connector-curvature="0"
       style="fill:none;stroke:#ffffff;stroke-width:0.44999999px" />
    <path
       d="m 525.4624,248.46 c 0,124.63851 -97.9,225.70735 -218.69,225.70735 V 248.46 Z"
       class="cls-5"
       id="path2816"
       inkscape:connector-curvature="0"
       style="fill:#ebb847;stroke-width:1.01584768" />
    <path
       d="m 358,325.33 a 43.63,43.63 0 0 1 6.06,-12 46.53,46.53 0 0 1 14.28,-12.93 50.46,50.46 0 0 1 37.89,-5.4 48,48 0 0 1 7.35,2.55 M 403.38,287 a 49.1,49.1 0 0 1 11.2,1.33 51,51 0 0 1 31.19,22.58 53.23,53.23 0 0 1 7.62,20.3 m -8.67,-11.46 a 50.57,50.57 0 0 1 2.66,31.8 46.2,46.2 0 0 1 -21.79,29.45 q -1,0.58 -2,1.1 m 16.86,-8.46 A 46.4,46.4 0 0 1 429.86,383 48.57,48.57 0 0 1 365.56,371.86 46,46 0 0 1 361.17,365 m 13.17,13.61 A 48.74,48.74 0 0 1 360.27,366 46.37,46.37 0 0 1 351.35,344 M 356,319.57 a 37.56,37.56 0 0 1 5,-9.74 47.85,47.85 0 0 1 14.42,-13.16 63.47,63.47 0 0 1 40.71,-8.32 59.17,59.17 0 0 1 6.24,1.19 m -22.88,-1.15 a 51.34,51.34 0 0 1 11.24,1.43 53.39,53.39 0 0 1 31.6,22.15 52.56,52.56 0 0 1 8.58,22.47 m -0.23,-18.18 a 47.48,47.48 0 0 1 2.32,31.25 55.25,55.25 0 0 1 -23.65,32.28 M 441,371.62 a 45.7,45.7 0 0 1 -11.35,9.81 47.71,47.71 0 0 1 -37.87,5 53.28,53.28 0 0 1 -28.27,-19.48 q -1.46,-1.94 -2.75,-4 m 20.05,15.65 a 45.22,45.22 0 0 1 -25.67,-41.46 m 1,-15 a 42.59,42.59 0 0 1 6.54,-13 48,48 0 0 1 14.38,-12.81 52.89,52.89 0 0 1 38.35,-6 48.92,48.92 0 0 1 7.78,2.5 m -23.66,-8 a 57.89,57.89 0 0 1 12.2,1.61 49.36,49.36 0 0 1 30.73,21.9 45.73,45.73 0 0 1 5.24,36 v 0 m -1.37,-19.73 a 50.76,50.76 0 0 1 0.74,24.59 56.93,56.93 0 0 1 -39.83,42.37 m 22.46,-12.72 -0.58,0.37 a 53.25,53.25 0 0 1 -38.51,7.41 51.85,51.85 0 0 1 -28.49,-15.71 l -0.29,-0.32 m 13.38,7.82 a 53.81,53.81 0 0 1 -11.49,-11 52.81,52.81 0 0 1 -10.36,-23.36 m 1.77,-25.8 a 36.92,36.92 0 0 1 5.06,-9.67 43.82,43.82 0 0 1 14.39,-12.47 55.41,55.41 0 0 1 60.19,5 m -22.66,-10.38 q 2,0.35 4,0.85 a 51.08,51.08 0 0 1 30.87,21.64 43.29,43.29 0 0 1 5.73,34.82 41.05,41.05 0 0 1 -5.71,12.62 m 5.69,-26.29 a 52.58,52.58 0 0 1 -23.39,45.18 51.05,51.05 0 0 1 -36.76,8.07 47.85,47.85 0 0 1 -6.28,-1.5 m 25.33,-2.44 a 46.66,46.66 0 0 1 -21.56,-0.38 45.58,45.58 0 0 1 -26.3,-18.37 48,48 0 0 1 -8.37,-25.29 M 351,318 a 42,42 0 0 1 4.89,-8.67 47.48,47.48 0 0 1 14.75,-13 57.75,57.75 0 0 1 60.7,2.51 m -22,-7.95 q 1.63,0.27 3.24,0.64 a 48.65,48.65 0 0 1 30.69,21.83 46.17,46.17 0 0 1 5.41,36.32 45.39,45.39 0 0 1 -4.94,11.64 m 8,-26 a 50.92,50.92 0 0 1 -1.58,13.12 53.13,53.13 0 0 1 -21.91,31.1 47.27,47.27 0 0 1 -36.09,7.31 44.11,44.11 0 0 1 -5.82,-1.66 m 25.66,4.1 A 47.14,47.14 0 0 1 389.8,388.45 50.37,50.37 0 0 1 362.31,368.8 57.79,57.79 0 0 1 352,337.32"
       class="cls-6"
       id="path3867"
       inkscape:connector-curvature="0"
       style="fill:none;stroke:#ffffff;stroke-width:2px" />
    <path
       d="m 341.14,301.19 c 3.74,7.46 7.62,14.84 11.61,22.19 q 8.19,-3.46 16.52,-6.94 m -20.93,-14.21 q 5.38,9.66 10.65,19.29 11.45,-5.54 22.67,-11.21 m -40.88,-9.89 c 4.57,7.57 9.11,15.2 13.7,22.9 q 9.34,-3.86 18.78,-7.6 m -30.13,-8.85 q 5.24,9.82 11.08,19.65 8.2,-3.62 16.7,-7.25 m -31,-23.09 c 4.88,8.64 9.74,17.08 14.62,25.39 q 11.44,-4.94 23,-10.1"
       class="cls-3"
       id="path5256"
       inkscape:connector-curvature="0"
       style="fill:none;stroke:#ffffff" />
    <line
       id="line20"
       y2="248.46001"
       x2="526.78998"
       y1="248.25"
       x1="308.10001"
       class="cls-7"
       style="fill:none;stroke:#231f20;stroke-width:6px;stroke-miterlimit:10" />
    <path
       d="M 59.41,248.46 C 59.41,122.85687 157.31,21.005809 278.1,21.005809 V 248.46 Z"
       class="cls-5"
       id="path3607"
       inkscape:connector-curvature="0"
       style="fill:#ebb847;stroke-width:1.0197711" />
    <path
       d="m 207.33,191.17 c 0,-0.95 -0.06,-2 -0.09,-3.12 a 142.8,142.8 0 0 1 0.65,-18.27 65.52,65.52 0 0 1 1.73,-9.61 32.69,32.69 0 0 1 3.36,-8.32 16.93,16.93 0 0 1 5.53,-5.85 14.92,14.92 0 0 1 8.19,-2.15 15.17,15.17 0 0 1 6.37,1.38 m -15.81,-7.3 a 16.51,16.51 0 0 1 16.63,0 18,18 0 0 1 5.76,6.07 35.13,35.13 0 0 1 3.6,8.64 68.3,68.3 0 0 1 1.95,9.95 115.94,115.94 0 0 1 0.84,12.26 m -5.5,-7.72 v 0.24 a 140.09,140.09 0 0 1 -0.44,18 c -0.21,2.44 -0.43,4.48 -0.61,5.9 -0.09,0.71 -0.16,1.27 -0.22,1.65 l -0.06,0.44 v 0.11 0 0 c -10.69,-0.61 -21.16,-1.34 -31.62,-2.26 m 17.72,2.58 c -5.84,0 -11.78,0 -17.78,-0.08 v 0 c 0,0 -0.4,-3.22 -0.62,-8.07 a 109.93,109.93 0 0 1 0.51,-17.8 57.93,57.93 0 0 1 1.89,-9.49 31.13,31.13 0 0 1 3.67,-8.23 17.3,17.3 0 0 1 6,-5.73 15,15 0 0 1 3.56,-1.43 m -21.44,37.12 q 0,-0.37 -0.07,-0.75 a 87.1,87.1 0 0 1 0.34,-18.35 55.18,55.18 0 0 1 2.17,-9.77 33.25,33.25 0 0 1 4.09,-8.53 19.9,19.9 0 0 1 6.43,-6.08 19.26,19.26 0 0 1 9.33,-2.45 19.07,19.07 0 0 1 9.41,2 18.27,18.27 0 0 1 3.27,2.18 m -16.26,1.11 a 17.56,17.56 0 0 1 4.45,-0.48 16.28,16.28 0 0 1 8.39,2.28 18.35,18.35 0 0 1 5.79,5.82 34.42,34.42 0 0 1 3.72,8.08 64.27,64.27 0 0 1 2.17,9.05 111.91,111.91 0 0 1 1.45,16.41 q 0,0.7 0,1.34 m -5.27,-10.82 c 0,4.59 -0.25,8.92 -0.51,12.42 -0.18,2.49 -0.39,4.57 -0.54,6 -0.08,0.73 -0.15,1.3 -0.19,1.69 l -0.06,0.45 v 0.11 0 0 c -12.18,-0.45 -23.86,-1 -35.28,-1.61 v 0 c 0,0 0,-0.42 0,-1.18 M 220,187.45 q -5.95,-0.23 -12,-0.33 v 0 c 0,0 -0.47,-3.25 -0.85,-8 a 120.75,120.75 0 0 1 -0.26,-17.26 56,56 0 0 1 1.28,-9 29.11,29.11 0 0 1 2.33,-6.58 m -5.71,37.16 q 0,-0.7 -0.06,-1.45 a 129.4,129.4 0 0 1 0.54,-18 68.62,68.62 0 0 1 1.74,-9.83 36.07,36.07 0 0 1 3.4,-8.72 18.91,18.91 0 0 1 5.58,-6.33 16,16 0 0 1 8.25,-2.76 14.37,14.37 0 0 1 8.18,1.7 15.1,15.1 0 0 1 5.4,5.43 l 0.21,0.35 m -14.36,-9.47 a 18.4,18.4 0 0 1 2.55,-0.06 16,16 0 0 1 8.38,2.63 19,19 0 0 1 5.72,6.31 37,37 0 0 1 3.57,8.8 71.61,71.61 0 0 1 2,10.07 136.13,136.13 0 0 1 0.9,19 c 0,2.61 -0.15,4.8 -0.23,6.34 0,0.77 -0.09,1.38 -0.12,1.79 v 0.47 0.15 0 q -3.09,0.09 -6.17,0.22 M 244.09,178 c 0,1.72 0,3.33 -0.07,4.79 -0.1,2.53 -0.27,4.63 -0.41,6.1 -0.07,0.73 -0.14,1.31 -0.19,1.71 l -0.06,0.45 v 0.12 0 0 c -12.2,-0.31 -24.82,-0.79 -37.47,-1.33 v 0 c 0,0 -0.52,-3.33 -0.88,-8.32 -0.14,-2 -0.26,-4.29 -0.3,-6.73 m -3.14,9.52 c -0.1,-1.35 -0.24,-3.73 -0.32,-6.76 a 135.32,135.32 0 0 1 0.61,-18 68.82,68.82 0 0 1 1.75,-9.84 35.76,35.76 0 0 1 3.39,-8.71 18.73,18.73 0 0 1 5.61,-6.29 16,16 0 0 1 8.3,-2.7 14.69,14.69 0 0 1 8.28,1.8 13.63,13.63 0 0 1 1.34,0.88 m -19.12,5.12 a 16.48,16.48 0 0 1 8.71,-2 16.16,16.16 0 0 1 8.7,2.61 19,19 0 0 1 5.87,6.5 37.54,37.54 0 0 1 3.61,9.23 75.49,75.49 0 0 1 1.9,10.75 161.17,161.17 0 0 1 0.71,20.74 c 0,1.22 -0.06,2.35 -0.1,3.39 m 3.61,-22.45 c 0,5.3 -0.36,10.35 -0.77,14.38 -0.27,2.62 -0.56,4.81 -0.78,6.35 -0.11,0.77 -0.21,1.37 -0.27,1.78 l -0.08,0.47 v 0.12 0 0 c -12.45,0.27 -24.88,0.68 -37.59,1.59 m 14.76,-4.48 q -6.93,-0.39 -14,-0.66 v 0 c 0,0 -0.5,-3.32 -0.89,-8.25 a 123,123 0 0 1 -0.21,-18 62.44,62.44 0 0 1 1.36,-9.54 31.93,31.93 0 0 1 3,-8.31 19.25,19.25 0 0 1 2,-3 m -7.12,45.34 c -0.13,-1.15 -0.26,-2.52 -0.36,-4.06 a 89.08,89.08 0 0 1 0.46,-17.58 54.11,54.11 0 0 1 2.08,-9.4 31.13,31.13 0 0 1 3.92,-8.17 18,18 0 0 1 6.2,-5.7 17.38,17.38 0 0 1 9,-2 17.78,17.78 0 0 1 9.05,2.65 19,19 0 0 1 4.6,4.14 m -18.43,-6.51 a 18.55,18.55 0 0 1 5.48,-0.75 16.36,16.36 0 0 1 8.54,2.25 17.28,17.28 0 0 1 5.7,5.83 30.78,30.78 0 0 1 3.38,8.13 54.71,54.71 0 0 1 1.59,9.16 93.75,93.75 0 0 1 -0.09,16.69 c -0.2,2.24 -0.44,4.09 -0.62,5.38 -0.09,0.65 -0.17,1.15 -0.23,1.5 l -0.07,0.4 v 0.1 0 0 q -4.39,-0.64 -8.76,-1.33 m 8.72,-12.61 c -0.06,2 -0.17,3.86 -0.28,5.55 -0.18,2.57 -0.4,4.71 -0.57,6.21 -0.09,0.75 -0.16,1.34 -0.21,1.75 l -0.06,0.46 v 0.12 0 0 c -12.37,0 -24.65,0.1 -36.83,0.52 v 0 c 0,0 -0.4,-3.09 -0.55,-7.63 a 85.44,85.44 0 0 1 0.91,-16.39 l 0.08,-0.46"
       class="cls-3"
       id="path3833"
       inkscape:connector-curvature="0"
       style="fill:none;stroke:#ffffff" />
    <path
       d="m 230.12,117.23 a 13.12,13.12 0 0 1 -2.83,4.73 12.32,12.32 0 0 1 -8.78,3.95 12.08,12.08 0 0 1 -8.81,-3.57 12.43,12.43 0 0 1 0.17,-17.69 12.5,12.5 0 0 1 2.93,-2.12 m -1.85,14.73 a 12.36,12.36 0 0 1 3.46,-7.75 12.57,12.57 0 0 1 9,-3.8 13.62,13.62 0 0 1 9.34,3.66 13.29,13.29 0 0 1 4.27,8.9 12.54,12.54 0 0 1 -0.79,5.28 m 1,-5.22 a 12.91,12.91 0 0 1 -2.1,2.94 12.68,12.68 0 0 1 -9.08,3.93 13.65,13.65 0 0 1 -13.69,-12.63 12.6,12.6 0 0 1 2.86,-9 11.43,11.43 0 0 1 1.25,-1.27 m -9.2,17.64 a 13.19,13.19 0 0 1 12.94,-12 13.61,13.61 0 0 1 9.41,3.54 13.05,13.05 0 0 1 4.29,8.78 11.84,11.84 0 0 1 -2.9,8.72 9.73,9.73 0 0 1 -6.94,3.34 m 8.2,-9.66 a 12.65,12.65 0 0 1 -2.39,3.36 12,12 0 0 1 -8.81,3.59 12.2,12.2 0 0 1 -8.72,-4 13.24,13.24 0 0 1 -3.47,-9.31 14.1,14.1 0 0 1 4,-9.44 14.72,14.72 0 0 1 6.38,-3.92 m -8.2,11 a 12.68,12.68 0 0 1 3.1,-4.6 13.19,13.19 0 0 1 8.78,-3.64 11.47,11.47 0 0 1 8.45,3.28 10.6,10.6 0 0 1 3.08,8.29 11.23,11.23 0 0 1 -4.45,8.12 q -0.45,0.34 -0.93,0.65 m 4.51,-3.57 a 12.78,12.78 0 0 1 -3.67,7.84 11.87,11.87 0 0 1 -8.82,3.52 12.24,12.24 0 0 1 -8.7,-4.12 13.54,13.54 0 0 1 -3.44,-9.44 14.31,14.31 0 0 1 2.2,-7.26 m -3.49,6.88 a 12.18,12.18 0 0 1 -0.56,-4 13,13 0 0 1 3.88,-8.89 13.67,13.67 0 0 1 9,-4 12.56,12.56 0 0 1 9,3.15 11.37,11.37 0 0 1 3.74,7.33 m -4.19,-8.48 0.49,0.45 a 12,12 0 0 1 3.53,8.66 13.61,13.61 0 0 1 -12.21,13.35 10.86,10.86 0 0 1 -8.41,-2.72 9.88,9.88 0 0 1 -3.18,-7.88 A 10.27,10.27 0 0 1 211,111 m 21.73,15.26 a 12.43,12.43 0 0 1 -3.36,5.23 11.74,11.74 0 0 1 -8.84,3.14 12.08,12.08 0 0 1 -8.48,-4.5 14.16,14.16 0 0 1 -3.11,-9.84 16.3,16.3 0 0 1 4.41,-10.12 18.43,18.43 0 0 1 8.45,-5.19 m -11.8,9.28 a 13.49,13.49 0 0 1 3.22,-5.3 12.3,12.3 0 0 1 8.91,-3.74 12,12 0 0 1 8.72,3.93 13.09,13.09 0 0 1 3.42,9.28 14,14 0 0 1 -4,9.38 14.56,14.56 0 0 1 -3.46,2.62"
       class="cls-6"
       id="path3837"
       inkscape:connector-curvature="0"
       style="fill:none;stroke:#ffffff;stroke-width:2px" />
    <path
       d="m 140.93,215.59 c -0.13,-1.12 -0.26,-2.36 -0.39,-3.7 a 126.87,126.87 0 0 1 -0.21,-21.91 69.86,69.86 0 0 1 1.91,-11.58 36.57,36.57 0 0 1 4.08,-10 19.21,19.21 0 0 1 6.85,-6.82 17.37,17.37 0 0 1 10.14,-2 18.42,18.42 0 0 1 7.82,2.37 m -15.42,-6.07 a 19.6,19.6 0 0 1 10.19,-3 18.7,18.7 0 0 1 10.44,2.57 20.76,20.76 0 0 1 7,7.29 39,39 0 0 1 4.11,10.37 71.91,71.91 0 0 1 1.87,11.89 112.9,112.9 0 0 1 0.18,14.39 m -5,-6 v 0.31 a 129.17,129.17 0 0 1 0.5,23.15 c -0.2,3.11 -0.46,5.68 -0.67,7.47 -0.11,0.9 -0.2,1.6 -0.26,2.08 l -0.08,0.55 v 0.14 0 0 c -13.42,-0.74 -26.94,-1.8 -40.36,-3 m 28.08,-1.73 c -7.57,0.06 -15.24,0 -23,-0.26 v 0 c 0,0 -0.61,-4.11 -1.07,-10.35 a 157.25,157.25 0 0 1 -0.12,-23.09 83.79,83.79 0 0 1 1.83,-12.47 43.46,43.46 0 0 1 4,-10.94 22.27,22.27 0 0 1 6.77,-7.83 17.67,17.67 0 0 1 4,-2.07 m -23.52,53.88 q 0,-0.43 0,-0.88 a 151.49,151.49 0 0 1 0.76,-22.19 84.27,84.27 0 0 1 2.28,-12.27 45.21,45.21 0 0 1 4.36,-10.89 24.07,24.07 0 0 1 7.15,-7.94 20.63,20.63 0 0 1 10.54,-3.46 18.67,18.67 0 0 1 10.48,2.18 17.6,17.6 0 0 1 3.52,2.6 M 163,151.12 a 23.17,23.17 0 0 1 5.91,-0.67 20.11,20.11 0 0 1 10.84,3 22.41,22.41 0 0 1 7.22,7.81 42.39,42.39 0 0 1 4.29,11 80.9,80.9 0 0 1 2,12.75 157.46,157.46 0 0 1 -0.1,24.16 q -0.08,1.05 -0.16,2 m -1.93,-12.14 a 154.26,154.26 0 0 1 -1,15.49 c -0.36,3.09 -0.75,5.66 -1.05,7.45 -0.15,0.9 -0.28,1.6 -0.37,2.08 l -0.11,0.55 v 0.14 0 0 c -16.29,-0.86 -32.71,-2 -49.66,-3.6 v 0 c 0,0 -0.11,-0.52 -0.29,-1.45 m 20.66,-2.39 q -8,0 -15.88,-0.17 v 0 c 0,0 -0.74,-4.09 -1.31,-10.32 a 147.6,147.6 0 0 1 -0.35,-23.14 86.34,86.34 0 0 1 1.75,-12.57 48.52,48.52 0 0 1 3,-9.37 m -13.75,43.46 q 0,-0.92 0,-1.9 a 146,146 0 0 1 1.16,-22.62 71,71 0 0 1 2.59,-11.7 37.18,37.18 0 0 1 4.75,-10 20.75,20.75 0 0 1 7.56,-6.78 20.37,20.37 0 0 1 11.06,-2 22.07,22.07 0 0 1 11.11,3.86 27.21,27.21 0 0 1 7.7,8.62 l 0.31,0.53 m -21.53,-7.93 a 23.38,23.38 0 0 1 3.22,-0.17 19.64,19.64 0 0 1 10.52,3 22.22,22.22 0 0 1 7.06,7.62 41.93,41.93 0 0 1 4.24,10.69 78.05,78.05 0 0 1 2.05,12.19 139,139 0 0 1 0.07,22.69 c -0.23,3.09 -0.51,5.66 -0.73,7.46 -0.11,0.9 -0.21,1.61 -0.28,2.09 l -0.08,0.55 v 0.14 0 0 l -8.28,-0.4 M 187,198.57 c -0.18,2.22 -0.38,4.3 -0.6,6.19 -0.36,3.26 -0.75,6 -1,7.86 -0.15,0.95 -0.27,1.69 -0.36,2.2 l -0.1,0.58 v 0.15 0 0 c -16.19,0 -32.26,-0.3 -48.64,-0.4 v 0 c 0,0 -0.77,-4 -1.47,-10 -0.28,-2.39 -0.55,-5.08 -0.77,-8 m 5.2,12.5 c -0.13,-1.79 -0.32,-4.9 -0.44,-8.77 a 163.29,163.29 0 0 1 0.62,-22.14 71.8,71.8 0 0 1 2.08,-11.41 35,35 0 0 1 4.15,-9.68 18.31,18.31 0 0 1 6.91,-6.49 17.45,17.45 0 0 1 10.25,-1.64 19.37,19.37 0 0 1 10.19,4.22 20.49,20.49 0 0 1 1.64,1.49 M 148,160.12 a 19.53,19.53 0 0 1 10.56,-2.52 20.51,20.51 0 0 1 10.82,3.2 24.59,24.59 0 0 1 7.5,8 49.06,49.06 0 0 1 4.9,11.2 98.93,98.93 0 0 1 3,13 202.72,202.72 0 0 1 2.22,24.8 c 0.05,1.44 0.09,2.79 0.12,4 M 186,196.13 c 0.25,6.65 0.08,12.9 -0.18,17.84 -0.17,3.22 -0.38,5.89 -0.54,7.75 -0.08,0.93 -0.16,1.67 -0.21,2.16 l -0.06,0.57 v 0.15 0 0 c -14.66,-0.24 -28.87,-0.77 -42.62,-1.14 m 18.34,-12.07 q -9.12,-0.69 -18.22,-1 v 0 c 0,0 -0.75,-4.19 -1.37,-10.32 a 146.16,146.16 0 0 1 -0.68,-22.12 74.7,74.7 0 0 1 1.47,-11.59 37.37,37.37 0 0 1 3.54,-10 22.07,22.07 0 0 1 2.35,-3.49 M 139.37,214 c -0.2,-1.46 -0.42,-3.19 -0.61,-5.13 a 112.58,112.58 0 0 1 -0.08,-22 65.92,65.92 0 0 1 2.19,-11.59 36.38,36.38 0 0 1 4.46,-10 20.2,20.2 0 0 1 7.28,-6.81 19.13,19.13 0 0 1 10.69,-2 19.94,19.94 0 0 1 10.58,3.84 22.34,22.34 0 0 1 5.19,5.56 m -19.41,-11.42 a 22.48,22.48 0 0 1 6.85,-1 19.28,19.28 0 0 1 10.55,2.85 20.5,20.5 0 0 1 6.84,7.51 37.12,37.12 0 0 1 3.74,10.57 66.47,66.47 0 0 1 1.25,12.06 115.18,115.18 0 0 1 -2,22.4 c -0.56,3 -1.13,5.57 -1.57,7.34 -0.22,0.88 -0.4,1.58 -0.52,2.05 l -0.15,0.54 v 0.14 0 0 l -12.33,-0.76 m 16.95,-16.28 c -0.09,2.54 -0.22,4.91 -0.37,7 -0.23,3.25 -0.5,6 -0.72,7.85 -0.11,0.95 -0.2,1.69 -0.27,2.2 l -0.08,0.58 v 0.15 0 0 c -15.54,0 -30.93,0 -46.17,0.23 v 0 c 0,0 -0.48,-3.95 -0.64,-9.78 a 112,112 0 0 1 1.26,-21 l 0.09,-0.5"
       class="cls-3"
       id="path3847"
       inkscape:connector-curvature="0"
       style="fill:none;stroke:#ffffff" />
    <path
       d="m 171.33,128.32 a 16.5,16.5 0 0 1 -3.56,5.95 15.48,15.48 0 0 1 -11,5 15.18,15.18 0 0 1 -11.07,-4.49 15.63,15.63 0 0 1 0.21,-22.23 15.71,15.71 0 0 1 3.69,-2.66 m -2.33,18.51 a 15.53,15.53 0 0 1 4.35,-9.74 15.8,15.8 0 0 1 11.33,-4.77 17.12,17.12 0 0 1 11.74,4.6 16.7,16.7 0 0 1 5.31,11.13 15.76,15.76 0 0 1 -1,6.64 m 1.3,-6.56 a 16.23,16.23 0 0 1 -2.65,3.69 15.94,15.94 0 0 1 -11.41,4.94 17.16,17.16 0 0 1 -17.2,-15.88 15.84,15.84 0 0 1 3.59,-11.32 14.37,14.37 0 0 1 1.57,-1.6 m -11.53,22.17 a 16.58,16.58 0 0 1 16.26,-15.08 17.1,17.1 0 0 1 11.82,4.45 16.4,16.4 0 0 1 5.4,11 14.88,14.88 0 0 1 -3.65,11 12.23,12.23 0 0 1 -8.73,4.2 m 10.31,-12.15 a 15.9,15.9 0 0 1 -3,4.23 15.08,15.08 0 0 1 -11.08,4.51 15.33,15.33 0 0 1 -11,-5 16.64,16.64 0 0 1 -4.36,-11.7 17.72,17.72 0 0 1 5,-11.87 18.5,18.5 0 0 1 8,-4.93 m -10.31,13.84 a 15.94,15.94 0 0 1 3.89,-5.78 16.58,16.58 0 0 1 11,-4.58 14.42,14.42 0 0 1 10.62,4.13 13.32,13.32 0 0 1 3.88,10.42 14.12,14.12 0 0 1 -5.59,10.21 q -0.56,0.43 -1.17,0.82 m 5.67,-4.48 a 16.07,16.07 0 0 1 -4.61,9.85 14.92,14.92 0 0 1 -11.02,4.4 15.39,15.39 0 0 1 -10.94,-5.19 17,17 0 0 1 -4.33,-11.87 18,18 0 0 1 2.76,-9.13 m -4.38,8.64 a 15.31,15.31 0 0 1 -0.7,-5 16.32,16.32 0 0 1 4.89,-11.16 17.19,17.19 0 0 1 11.36,-5 15.79,15.79 0 0 1 11.31,4 14.29,14.29 0 0 1 4.71,9.21 m -5.32,-10.74 q 0.32,0.27 0.62,0.56 a 15,15 0 0 1 4.44,10.89 17.1,17.1 0 0 1 -15.34,16.78 13.65,13.65 0 0 1 -10.57,-3.42 12.41,12.41 0 0 1 -4,-9.9 12.91,12.91 0 0 1 2.78,-7.29 m 27.32,19.18 a 15.63,15.63 0 0 1 -4.23,6.58 14.76,14.76 0 0 1 -11.11,3.94 15.18,15.18 0 0 1 -10.66,-5.66 17.79,17.79 0 0 1 -3.91,-12.37 20.48,20.48 0 0 1 5.54,-12.72 23.16,23.16 0 0 1 10.61,-6.52 M 146,124.58 a 17,17 0 0 1 4,-6.66 15.46,15.46 0 0 1 11.2,-4.7 15.07,15.07 0 0 1 11,4.94 16.45,16.45 0 0 1 4.3,11.66 17.57,17.57 0 0 1 -5,11.79 18.3,18.3 0 0 1 -4.35,3.29"
       class="cls-6"
       id="path3849"
       inkscape:connector-curvature="0"
       style="fill:none;stroke:#ffffff;stroke-width:2px" />
    <path
       d="m 59.41,248.46 c 0,125.12082 97.9,226.58077 218.69,226.58077 V 248.46 Z"
       class="cls-2"
       id="path2823"
       inkscape:connector-curvature="0"
       style="fill:#df5454;stroke-width:1.0178113" />
    <path
       d="m 138.44,313.3 c -0.15,3.86 -0.25,9.13 -0.06,15 a 124.43,124.43 0 0 0 1.91,19 c 1.21,6.33 3.13,12.32 6.19,17 6.08,9.29 8.7,14.69 9.84,17.76 1.14,3.07 0.78,3.81 0.77,3.83 v 0 l 7.64,0.07 m -14.11,-22.29 a 61.58,61.58 0 0 1 3.93,7.59 c 1.23,3 0.89,3.74 0.88,3.75 v 0 c 21,-0.15 42.87,0.18 65,0.62 m -23.24,6.07 c 15.85,-0.28 32.45,-0.63 49.32,-1.22 v 0 a 29.24,29.24 0 0 1 -4.86,-5.73 c -2.82,-4.07 -6.4,-10.57 -9.55,-20.41 m 13.64,18.81 c -3.27,-5.35 -7.15,-13.66 -10.23,-26 a 180,180 0 0 1 -5.2,-31.82 c -0.24,-3.78 -0.26,-6.73 -0.22,-8.73 0,-1 0.06,-1.77 0.09,-2.28 0,-0.26 0,-0.45 0,-0.59 v -0.2 0 c -9,0.13 -17.86,0.3 -26.63,0.58 m 18.46,-7.86 c 0,-0.31 0,-0.57 0,-0.79 0,-0.22 0,-0.47 0,-0.61 0,-0.14 0,-0.12 0,-0.16 v -0.05 0 c -30.2,-0.7 -57.33,-0.82 -83.21,-1.88 m 22.3,6.85 c -8.81,0.24 -17.38,0.2 -25.75,-0.06 v 0 c 0,0 -0.31,2.43 -0.52,6.28 a 116,116 0 0 0 0.15,14.76 78.32,78.32 0 0 0 3.27,17.41 41.71,41.71 0 0 0 5.49,11.49 M 130.28,309.1 a 123,123 0 0 0 -0.52,12.3 90.08,90.08 0 0 0 2.08,19.07 c 1.45,6.28 3.77,12.16 7.27,16.71 3.5,4.55 6.08,8.08 8,10.89 a 61.39,61.39 0 0 1 3.85,6.33 c 1.51,3 1.23,3.69 1.22,3.71 v 0 l 5.3,-0.1 m -4.82,-15.85 a 54.62,54.62 0 0 1 4.24,7.84 c 1.28,3 0.93,3.79 0.92,3.8 v 0 c 20.55,0.16 40.17,1.15 59.28,2.78 m -16.77,1.25 c 17.4,0.32 34.24,0 50.84,-0.72 v 0 c 0,0 -2.93,-2.29 -6.82,-8.15 -3.89,-5.86 -8.8,-15.31 -12.78,-29.84 q -0.92,-3.35 -1.68,-6.51 m 12,24.3 a 84.93,84.93 0 0 1 -7.2,-18.72 138.72,138.72 0 0 1 -4.69,-31.25 c -0.11,-3.71 0,-6.6 0.11,-8.56 0.06,-1 0.13,-1.73 0.18,-2.23 0,-0.25 0,-0.44 0.06,-0.57 v -0.15 -0.05 0 c -9.81,0.36 -19.51,0.83 -29.15,1.52 m 21.17,1.1 c -27.37,0.42 -57,0 -86.15,-0.5 v 0 c 0,0 0,0.22 -0.09,0.64 m 15.56,-6 c -6.58,0.18 -13.29,0.25 -20.1,0.23 v 0 c 0,0 -0.32,2.5 -0.62,6.48 -0.3,3.98 -0.62,9.45 -0.59,15.41 a 104.78,104.78 0 0 0 1.55,18.49 c 1.14,6.05 3,11.7 6.13,16 3.58,5 6,8.79 7.66,11.63 M 128.59,306.8 c -0.11,3.75 -0.15,8.43 0.08,13.56 a 123.51,123.51 0 0 0 2.37,20 c 1.43,6.72 3.63,13.15 7,18.29 3.37,5.14 5.78,9.21 7.55,12.45 a 69.24,69.24 0 0 1 3.58,7.35 c 1.38,3.45 1.07,4.28 1.07,4.3 v 0 q 6.95,0.9 14,2 m -12.36,-15.94 c 0.93,2 1.56,3.48 2,4.67 1.14,3.19 0.78,4 0.78,4 v 0 c 22.25,1.09 44.87,2.11 66.76,4.5 m -14.7,-6.46 c 15.05,-0.41 29.78,-0.48 44.24,-0.43 v 0 a 36,36 0 0 1 -6.73,-7.28 c -3.88,-5.22 -8.81,-13.6 -13.21,-26.35 m 7.72,21.47 a 87.52,87.52 0 0 1 -7.5,-19.72 140.52,140.52 0 0 1 -4.56,-31.46 c -0.09,-3.73 0,-6.63 0.15,-8.6 0.06,-1 0.14,-1.74 0.19,-2.25 0,-0.25 0,-0.45 0.07,-0.58 v -0.15 -0.05 0 c -9.74,0.3 -19.35,0.69 -28.87,1.23 m 26.18,-1.57 c -28.38,0.6 -57.66,-1.32 -86.68,-4.58 v 0 a 115.24,115.24 0 0 0 -1.22,14.18 m -0.7,-13.21 a 166,166 0 0 0 -0.91,21.06 112.37,112.37 0 0 0 2,19.77 c 1.35,6.58 3.5,12.82 6.81,17.74 6.58,9.79 9.59,15.56 10.94,18.83 1.35,3.27 1,4.06 1,4.08 v 0 q 11,0.83 22.06,1.95 m -27,-15.45 a 51.63,51.63 0 0 1 2.3,4.75 c 1.29,3 1,3.78 1,3.8 v 0 c 26.34,0 53.62,-0.73 82.09,-1.93 m -34,9.75 c 13.88,-0.3 27.73,-0.48 41.73,-0.66 v 0 c 0,0 -2.73,-2.2 -6.13,-7.81 a 66.6,66.6 0 0 1 -5.33,-11.16 96.09,96.09 0 0 1 -4.62,-17.32 c -0.92,-5.28 -1.51,-10.2 -1.86,-14.73 m 7.29,25.54 c -1.12,-3.23 -2.21,-6.82 -3.23,-10.82 a 196.8,196.8 0 0 1 -5.57,-32.83 c -0.3,-3.93 -0.38,-7 -0.38,-9.09 0,-1 0,-1.85 0,-2.39 0,-0.27 0,-0.47 0,-0.61 0,-0.14 0,-0.12 0,-0.16 v -0.05 0 c -15,-0.49 -30,-1.17 -45,-2.13 m 32,1.18 c -25.76,-1.23 -50,-0.31 -73.87,0.9 v 0 a 168.48,168.48 0 0 0 -0.1,23.35 c 0.14,2.17 0.33,4.4 0.59,6.66 m -2.82,-21.67 a 159.09,159.09 0 0 0 -0.62,16.44 96.44,96.44 0 0 0 1.83,18.25 c 1.27,5.94 3.32,11.42 6.52,15.55 3.2,4.13 5.49,7.29 7.16,9.79 a 47.2,47.2 0 0 1 3.32,5.63 c 1.26,2.63 0.92,3.28 0.91,3.29 v 0 q 10.78,-1.39 21.57,-3.2 M 145.39,374 c 0.53,1.07 0.93,2 1.24,2.74 1.21,3 0.87,3.73 0.86,3.75 v 0 c 31.91,-0.27 65.54,-0.07 99.39,-0.25 v 0 a 13.52,13.52 0 0 1 -1.14,-1.09 m -27.3,-8.73 c 10.22,0.43 20.25,0.82 30.15,1.28 v 0 a 33.34,33.34 0 0 1 -6.67,-7.17 71.58,71.58 0 0 1 -6.2,-10.24 105.56,105.56 0 0 1 -6.28,-15.64 164.87,164.87 0 0 1 -5.37,-21.65 m 9,27.52 -0.26,-0.9 a 174,174 0 0 1 -6.06,-31.93 c -0.33,-3.77 -0.43,-6.69 -0.44,-8.68 0,-1 0,-1.75 0,-2.27 0,-0.26 0,-0.45 0,-0.58 v -0.16 0 q -15.28,0.31 -30.7,0.83 m 19.46,2.94 c -25.37,-0.77 -51,-0.57 -76.35,-0.6 v 0 a 142.44,142.44 0 0 0 -0.9,15.28"
       class="cls-3"
       id="path3851"
       inkscape:connector-curvature="0"
       style="fill:none;stroke:#ffffff" />
    <path
       d="m 161.16,339.76 q 6.7,7.84 13.59,15.7 c 8.34,-7.94 16.8,-15.89 25.29,-23.92 m -35.46,-0.05 q 6.25,7 12.61,14.33 c 10.56,-9.51 21.28,-18.58 32.14,-27.38 m -42.18,18.3 q 7.58,8.46 15.07,16.9 13.31,-12.47 26.48,-25.14 m -40.15,11.6 12.76,14.83 c 8.28,-7.59 16.36,-15.42 24.31,-23.39 m -49,1.41 q 8.38,9.52 16.93,19.11 15.53,-13.93 31.54,-27.78"
       class="cls-3"
       id="path3859"
       inkscape:connector-curvature="0"
       style="fill:none;stroke:#ffffff" />
    <path
       id="path30"
       d="m 284.54298,484.11505 c -130.39674,0 -236.095756,-105.69902 -236.095756,-236.11718 0,-130.41817 105.699016,-236.052919 236.095756,-236.052919"
       class="cls-1"
       inkscape:connector-curvature="0"
       style="fill:none;stroke:#231f20;stroke-width:21.42041016px;stroke-miterlimit:10" />
    <line
       id="line32"
       y2="248.25"
       x2="278.10001"
       y1="248.03"
       x1="55.919998"
       class="cls-7"
       style="fill:none;stroke:#231f20;stroke-width:6px;stroke-miterlimit:10" />
    <line
       id="line34"
       y2="518.76886"
       x2="276.35999"
       x1="276.35999"
       class="cls-1"
       y1="-22.708887"
       style="fill:none;stroke:#231f20;stroke-width:21.83114052px;stroke-miterlimit:10" />
    <path
       style="fill:none;stroke:#231f20;stroke-width:21.42041016px;stroke-miterlimit:10"
       inkscape:connector-curvature="0"
       class="cls-1"
       d="m 298.02386,484.11505 c 130.39687,0 236.09589,-105.69902 236.09589,-236.11718 0,-130.41817 -105.69902,-236.052919 -236.09589,-236.052919"
       id="path4622" />
    <line
       style="fill:none;stroke:#231f20;stroke-width:21.83114052px;stroke-miterlimit:10"
       y1="-22.708887"
       class="cls-1"
       x1="306.98416"
       x2="306.98416"
       y2="518.76886"
       id="line4624" />
  </g>
  <circle
     style="fill:none;stroke:#000000;stroke-width:0.0066468;stroke-miterlimit:4;stroke-dasharray:none;stroke-opacity:1"
     id="path4603"
     cx="300"
     cy="300"
     r="4.4221349" />
</svg>
