<svg id="Layer_1" data-name="Layer 1" xmlns="http://www.w3.org/2000/svg" viewBox="0 0 582.87 496.06"><defs><style>.cls-1,.cls-3,.cls-4,.cls-6,.cls-7{fill:none;}.cls-1,.cls-7{stroke:#231f20;stroke-miterlimit:10;}.cls-1{stroke-width:20px;}.cls-2{fill:#df5454;}.cls-3,.cls-4,.cls-6{stroke:#fff;}.cls-4{stroke-width:0.45px;}.cls-5{fill:#ebb847;}.cls-6{stroke-width:2px;}.cls-7{stroke-width:6px;}</style></defs><title>SWK-Magdeburg1</title><circle class="cls-1" cx="55.92" cy="248.03" r="45.92"/><circle class="cls-1" cx="526.95" cy="248.03" r="45.92"/><path id="path3609" class="cls-2" d="M526.79,248.46c0-120.78-97.9-218.72-218.69-218.72V248.46Z"/><path id="rect3824" class="cls-3" d="M386.61,123c17.82-.57,34.74-.56,51.36-.41a18.14,18.14,0,0,1,17.83,18.78m-10.56-26.19a18.56,18.56,0,0,1,9.26,16.12q.07,13.4.5,27a18.6,18.6,0,0,1-13.49,18.74m5.56-3.25a19.43,19.43,0,0,1-16.85,9.08c-18.46-.41-36.21-1-54-2m22.28,2.77c-6.24.22-12.57.38-19,.49a18.16,18.16,0,0,1-18.41-18.43c.07-8.86.12-17.73.25-26.52a18.07,18.07,0,0,1,9.29-15.53m-17,15.11q-.12-4.12-.16-8.22A18.75,18.75,0,0,1,359.1,117,20,20,0,0,1,373,111.28c16.55-.26,33.8-.54,51.43-1.11m-38.29,6.46a471.65,471.65,0,0,0,49.19-1.44,21,21,0,0,1,13.87,3.75,17.3,17.3,0,0,1,7.11,10.8m-15.86-10.61a19.13,19.13,0,0,1,8.5,15.81c.08,8.9.38,17.77.85,26.6a17.78,17.78,0,0,1-4.41,12.89,16,16,0,0,1-11.79,5.38m19.24-11.35a18.76,18.76,0,0,1-14.85,7.44c-17.77.26-36.24,1.16-55.11,2.57m13.78,1.18q-9.53.18-19.29.08c-10.38-.1-18.87-8.74-19.09-19.6-.19-9.34-.44-18.8-.71-28.35a20.91,20.91,0,0,1,6-15.43m-3.32,22.39q-.09-4.43-.12-8.9c-.07-10,8.45-18.18,19.17-17.9,17.91.46,36.29.95,54.86,2.12m-48.55,1c17.22.24,33.66.18,49.89,0a18.06,18.06,0,0,1,18.37,18.37q0,1.68,0,3.35m-12-23.12a19.43,19.43,0,0,1,7.59,14.91c.16,9,.15,17.75,0,26.42-.12,10.09-8.71,18.08-19.34,17.54q-8.58-.44-17.12-.93m23,6.3a18.14,18.14,0,0,1-7.06,1.59,534.63,534.63,0,0,0-56.07,4.09c-6.26.8-11.71-1.63-14.76-5.65m22,1-2.71.13c-10.79.5-19.4-7.5-19.69-17.35-.25-8.47-.5-16.87-.84-25.09a15.23,15.23,0,0,1,4.7-11.79m-3,8.72q0-.87,0-1.74c0-10.68,8.33-19.14,18.49-19.17,15.55,0,30.75.15,45.69.24m-45.47,2.75c18.38.53,37.53.79,57.16,1.28a21.31,21.31,0,0,1,20.63,19.83q.22,3.17.45,6.36m-9.44-23.56a19.17,19.17,0,0,1,9.17,16q.1,13.18,0,25.73a16.13,16.13,0,0,1-5.55,12.19,17.38,17.38,0,0,1-13.36,4.08q-10.92-1.14-21.8-2.55m26.68,0a19,19,0,0,1-6.47,1.31c-19.15.48-38.16,1.09-57,2.28a17.29,17.29,0,0,1-12.93-4.45,15.46,15.46,0,0,1-5-12q.07-1.85.15-3.7m11.7,15.72a18,18,0,0,1-13.57-18.22q.4-13.58,1.19-27.41a20.7,20.7,0,0,1,6.49-13.8,22.4,22.4,0,0,1,14.56-6.11l1.21-.05m-29,18.12a20.07,20.07,0,0,1,16.66-9.28c19.91-.3,39.94-.48,60.77-1a22.2,22.2,0,0,1,13.43,4.09m-64.14-4c17.78-.21,35.24-.51,52.57-1.1A17.42,17.42,0,0,1,450.29,133q-.1,5.82-.21,11.58m-1.86-24.29a17.59,17.59,0,0,1,5,12.62c-.06,8.8.06,17.83.3,27,.27,10.68-7.75,19.45-17.66,19.95-8.62.44-17.18.91-25.74,1.33m25.76,1.42q-.82.06-1.66,0c-19.19-.37-38.42-1.37-57.65-3.33a20.12,20.12,0,0,1-13.29-7.19,23.68,23.68,0,0,1-5.48-15.4q0-3.36,0-6.75m4.6,30.35a18.85,18.85,0,0,1-10.77-17.1q.07-13.48.47-26.9A19.63,19.63,0,0,1,372,117.53q11.44,0,23-.08"/><path id="path3829" class="cls-4" d="M387.48,202.12c17.66-.57,34.45-.56,50.93-.42a62.73,62.73,0,0,1,12.8,1.27,16.36,16.36,0,0,1,3.85,1.29,3.82,3.82,0,0,1,1,.75,1.14,1.14,0,0,1,.35.8q-.1,2.83-.2,5.65a1.21,1.21,0,0,1-.41.8,4.28,4.28,0,0,1-1.13.75,13.44,13.44,0,0,1-2.13.79m-6.05-21.35c1,.13,2,.28,2.91.46a16.71,16.71,0,0,1,3.93,1.19,3.89,3.89,0,0,1,1.07.72,1.12,1.12,0,0,1,.37.78q0,2.77,0,5.55a1.14,1.14,0,0,1-.38.79,4,4,0,0,1-1.08.73,17.52,17.52,0,0,1-4,1.24,68.92,68.92,0,0,1-13,1.19c-12.11.09-24,.31-35.78.57m9,5.73c-12.39-.2-24.39-.44-36.17-.79a63.29,63.29,0,0,1-13-1.58,16.88,16.88,0,0,1-3.9-1.4,4,4,0,0,1-1.05-.79A1.21,1.21,0,0,1,355,206q.06-2.91.14-5.83a1.27,1.27,0,0,1,.4-.83,4.4,4.4,0,0,1,1.12-.8,19.05,19.05,0,0,1,4.1-1.45,61.51,61.51,0,0,1,7.39-1.33m-7.05,9.5q.07-1.46.13-2.92a1.13,1.13,0,0,1,.41-.76,4.16,4.16,0,0,1,1.14-.7,18.71,18.71,0,0,1,4.14-1.13,74.46,74.46,0,0,1,13.54-.87c19.47.31,38.48.34,57.9.71a68.17,68.17,0,0,1,13.51,1.46c.66.15,1.28.32,1.84.49m-71-10.48c15.48-.39,31.92-.59,49-.88a81,81,0,0,1,14.28.88,20.75,20.75,0,0,1,4.38,1.15,4.61,4.61,0,0,1,1.21.7,1.22,1.22,0,0,1,.47.77q.28,2.73.58,5.44a1,1,0,0,1-.28.77,3.2,3.2,0,0,1-.94.7,13.5,13.5,0,0,1-3.52,1.11,37.11,37.11,0,0,1-4.56.59m6.67-4.94a12.46,12.46,0,0,1,1.91.8,4,4,0,0,1,1.05.76,1.17,1.17,0,0,1,.36.81q-.06,2.84-.08,5.65a1.16,1.16,0,0,1-.38.79,4,4,0,0,1-1.09.73,16.79,16.79,0,0,1-4,1.21,56.91,56.91,0,0,1-13,.76c-15.18-.68-29.7-2.16-43.88-4.13m10.36,4c-9.57,0-18.86,0-27.92-.11a61.06,61.06,0,0,1-12.72-1.28,15.72,15.72,0,0,1-3.78-1.3,3.71,3.71,0,0,1-1-.75,1.13,1.13,0,0,1-.33-.8q.15-2.83.33-5.67a1.25,1.25,0,0,1,.43-.8,4.5,4.5,0,0,1,1.17-.76,19.84,19.84,0,0,1,4.27-1.31,79.5,79.5,0,0,1,14.22-1.4l2,0M366.23,192c.49-.14,1-.27,1.6-.39a63.16,63.16,0,0,1,13.29-1.12c18.38.21,36,1.13,53.17,2.6m-47.9,1.18c16.71.3,32.87,0,48.8-.71a68.18,68.18,0,0,1,12.88.48,16.17,16.17,0,0,1,3.87,1,3.57,3.57,0,0,1,1,.66,1,1,0,0,1,.35.74q-.08,2.62-.16,5.24a1.05,1.05,0,0,1-.4.73,3.92,3.92,0,0,1-1.12.65,17.62,17.62,0,0,1-4.12,1,65.65,65.65,0,0,1-12,.27m19.17-12a3.48,3.48,0,0,1,.7.58,1.23,1.23,0,0,1,.36.83q0,2.92-.07,5.83a1.24,1.24,0,0,1-.39.83,4.22,4.22,0,0,1-1.09.79,17.81,17.81,0,0,1-4,1.39,65.59,65.59,0,0,1-13.08,1.55c-18.77.54-36.89.92-54.74,2-2.18.13-4.27.19-6.18.16m19.95,1.27q-8.65.13-17.6.15a64.5,64.5,0,0,1-13.06-1.16,17.38,17.38,0,0,1-4-1.27,4,4,0,0,1-1.09-.74,1.17,1.17,0,0,1-.38-.8q0-2.82,0-5.64a1.16,1.16,0,0,1,.37-.8,4,4,0,0,1,1.07-.75,17.3,17.3,0,0,1,3.95-1.29,67.12,67.12,0,0,1,13-1.32l18.78-.3m-22.36-5c19.43.49,37.84.13,56-.63a67.51,67.51,0,0,1,12.93.54,16.37,16.37,0,0,1,3.9,1,3.65,3.65,0,0,1,1.06.67,1,1,0,0,1,.36.74q-.06,2.65-.11,5.29a1.06,1.06,0,0,1-.39.74,3.89,3.89,0,0,1-1.11.66,17.43,17.43,0,0,1-4.06,1c-.84.12-1.75.23-2.74.31m-1.59-4.36c1.18.16,2.28.35,3.26.57a18.18,18.18,0,0,1,4.13,1.32,4.29,4.29,0,0,1,1.13.76,1.23,1.23,0,0,1,.41.81q.09,2.87.17,5.76a1.19,1.19,0,0,1-.35.82,4,4,0,0,1-1,.78,17.39,17.39,0,0,1-3.87,1.42,73.35,73.35,0,0,1-12.86,1.89c-15.83,1.1-31.66,2.89-47,5.5M407.89,207c-10.21.48-20.32.91-30.43,1.43a74.68,74.68,0,0,1-13.58-.4,18.19,18.19,0,0,1-4.12-1,4,4,0,0,1-1.12-.65,1.05,1.05,0,0,1-.41-.73q-.09-2.61-.19-5.19a1,1,0,0,1,.35-.72,3.44,3.44,0,0,1,1-.63,15.17,15.17,0,0,1,3.83-.91,54.15,54.15,0,0,1,11.73,0m-13.63-3.84a19,19,0,0,1,3.72-1.21,63.92,63.92,0,0,1,13.14-1.37c18.88-.22,37.24,0,55.2.12,1.49,0,2.94.06,4.32.15m-56.11,2.63c17.11.49,34.89.75,53.09,1.18a73.41,73.41,0,0,1,13.9,1.51,19.66,19.66,0,0,1,4.24,1.38,4.58,4.58,0,0,1,1.17.78,1.29,1.29,0,0,1,.43.82q.18,2.89.37,5.8a1.17,1.17,0,0,1-.32.83,3.78,3.78,0,0,1-1,.79,15.93,15.93,0,0,1-3.69,1.42,52.1,52.1,0,0,1-7.16,1.35m8.19-13.37a16.1,16.1,0,0,1,3.08,1.08A4.19,4.19,0,0,1,455,199a1.19,1.19,0,0,1,.39.8q0,2.82.08,5.61a1.13,1.13,0,0,1-.37.79,3.87,3.87,0,0,1-1.07.73,16.39,16.39,0,0,1-3.95,1.2,59.37,59.37,0,0,1-13.13.79c-19.06-.74-38.32-2.44-57.44-4.71a75.55,75.55,0,0,1-9.33-1.68M397,204.22q-9.5.23-18.95.49A68.09,68.09,0,0,1,365,204a16.77,16.77,0,0,1-3.94-1.09,3.75,3.75,0,0,1-1.07-.68,1.06,1.06,0,0,1-.37-.76q0-2.69.08-5.36a1.08,1.08,0,0,1,.39-.75,3.9,3.9,0,0,1,1.1-.68,17.26,17.26,0,0,1,4.06-1,65.7,65.7,0,0,1,13.46-.41c11.59.7,23.26,1.6,35,2.8m-28.51-6.58c16.58.15,33.55-.07,51-.54a79.71,79.71,0,0,1,14.05.71,19.91,19.91,0,0,1,4.3,1.09,4.4,4.4,0,0,1,1.19.68,1.16,1.16,0,0,1,.45.76q.22,2.69.47,5.36a1,1,0,0,1-.3.75,3.26,3.26,0,0,1-1,.68,14,14,0,0,1-3.6,1.06l-.93.15m-11.61-2.3.83.14a18.17,18.17,0,0,1,4.13,1.16,4.13,4.13,0,0,1,1.13.71,1.14,1.14,0,0,1,.41.77l.19,5.49a1.08,1.08,0,0,1-.35.78,3.71,3.71,0,0,1-1,.71,16.18,16.18,0,0,1-3.85,1.18,63.19,63.19,0,0,1-12.71,1c-18.34-.26-36.4-.5-53.54-1.14h-.35m25.09.53q-11.84-.14-23.85-.36a66.73,66.73,0,0,1-13.25-1.43,17.81,17.81,0,0,1-4-1.35,4.18,4.18,0,0,1-1.1-.77,1.22,1.22,0,0,1-.39-.82q0-2.88-.06-5.76a1.2,1.2,0,0,1,.37-.82,4.08,4.08,0,0,1,1.07-.78,17.55,17.55,0,0,1,3.94-1.39,69.42,69.42,0,0,1,13-1.67q12.58-.56,25.14-1.38"/><path id="path2816" class="cls-5" d="M526.79,248.46c0,120.78-97.9,218.72-218.69,218.72V248.46Z"/><path id="path3867" class="cls-6" d="M358,325.33a43.63,43.63,0,0,1,6.06-12,46.53,46.53,0,0,1,14.28-12.93,50.46,50.46,0,0,1,37.89-5.4,48,48,0,0,1,7.35,2.55M403.38,287a49.1,49.1,0,0,1,11.2,1.33,51,51,0,0,1,31.19,22.58,53.23,53.23,0,0,1,7.62,20.3m-8.67-11.46a50.57,50.57,0,0,1,2.66,31.8A46.2,46.2,0,0,1,425.59,381q-1,.58-2,1.1m16.86-8.46A46.4,46.4,0,0,1,429.86,383a48.57,48.57,0,0,1-64.3-11.14,46,46,0,0,1-4.39-6.86m13.17,13.61A48.74,48.74,0,0,1,360.27,366a46.37,46.37,0,0,1-8.92-22M356,319.57a37.56,37.56,0,0,1,5-9.74,47.85,47.85,0,0,1,14.42-13.16,63.47,63.47,0,0,1,40.71-8.32,59.17,59.17,0,0,1,6.24,1.19m-22.88-1.15a51.34,51.34,0,0,1,11.24,1.43,53.39,53.39,0,0,1,31.6,22.15,52.56,52.56,0,0,1,8.58,22.47m-.23-18.18A47.48,47.48,0,0,1,453,347.51a55.25,55.25,0,0,1-23.65,32.28M441,371.62a45.7,45.7,0,0,1-11.35,9.81,47.71,47.71,0,0,1-37.87,5,53.28,53.28,0,0,1-28.27-19.48q-1.46-1.94-2.75-4m20.05,15.65a45.22,45.22,0,0,1-25.67-41.46m1-15a42.59,42.59,0,0,1,6.54-13,48,48,0,0,1,14.38-12.81,52.89,52.89,0,0,1,38.35-6,48.92,48.92,0,0,1,7.78,2.5m-23.66-8a57.89,57.89,0,0,1,12.2,1.61,49.36,49.36,0,0,1,30.73,21.9,45.73,45.73,0,0,1,5.24,36v0m-1.37-19.73a50.76,50.76,0,0,1,.74,24.59,56.93,56.93,0,0,1-39.83,42.37m22.46-12.72-.58.37a53.25,53.25,0,0,1-38.51,7.41,51.85,51.85,0,0,1-28.49-15.71l-.29-.32m13.38,7.82a53.81,53.81,0,0,1-11.49-11,52.81,52.81,0,0,1-10.36-23.36m1.77-25.8a36.92,36.92,0,0,1,5.06-9.67,43.82,43.82,0,0,1,14.39-12.47,55.41,55.41,0,0,1,60.19,5m-22.66-10.38q2,.35,4,.85a51.08,51.08,0,0,1,30.87,21.64,43.29,43.29,0,0,1,5.73,34.82A41.05,41.05,0,0,1,447,360.67m5.69-26.29a52.58,52.58,0,0,1-23.39,45.18,51.05,51.05,0,0,1-36.76,8.07,47.85,47.85,0,0,1-6.28-1.5m25.33-2.44a46.66,46.66,0,0,1-21.56-.38,45.58,45.58,0,0,1-26.3-18.37,48,48,0,0,1-8.37-25.29M351,318a42,42,0,0,1,4.89-8.67,47.48,47.48,0,0,1,14.75-13,57.75,57.75,0,0,1,60.7,2.51m-22-7.95q1.63.27,3.24.64a48.65,48.65,0,0,1,30.69,21.83,46.17,46.17,0,0,1,5.41,36.32,45.39,45.39,0,0,1-4.94,11.64m8-26a50.92,50.92,0,0,1-1.58,13.12,53.13,53.13,0,0,1-21.91,31.1,47.27,47.27,0,0,1-36.09,7.31,44.11,44.11,0,0,1-5.82-1.66M412,389.29a47.14,47.14,0,0,1-22.2-.84,50.37,50.37,0,0,1-27.49-19.65A57.79,57.79,0,0,1,352,337.32"/><path id="path5256" class="cls-3" d="M341.14,301.19c3.74,7.46,7.62,14.84,11.61,22.19q8.19-3.46,16.52-6.94m-20.93-14.21q5.38,9.66,10.65,19.29,11.45-5.54,22.67-11.21m-40.88-9.89c4.57,7.57,9.11,15.2,13.7,22.9q9.34-3.86,18.78-7.6m-30.13-8.85q5.24,9.82,11.08,19.65,8.2-3.62,16.7-7.25m-31-23.09c4.88,8.64,9.74,17.08,14.62,25.39q11.44-4.94,23-10.1"/><path class="cls-1" d="M306.36,27.6C428.1,27.6,526.79,126.29,526.79,248S428.1,468.46,306.36,468.46"/><line class="cls-7" x1="308.1" y1="248.25" x2="526.79" y2="248.46"/><path id="path3607" class="cls-5" d="M59.41,248.46c0-120.78,97.9-218.72,218.69-218.72V248.46Z"/><path id="path3833" class="cls-3" d="M207.33,191.17c0-.95-.06-2-.09-3.12a142.8,142.8,0,0,1,.65-18.27,65.52,65.52,0,0,1,1.73-9.61,32.69,32.69,0,0,1,3.36-8.32,16.93,16.93,0,0,1,5.53-5.85,14.92,14.92,0,0,1,8.19-2.15,15.17,15.17,0,0,1,6.37,1.38m-15.81-7.3a16.51,16.51,0,0,1,16.63,0,18,18,0,0,1,5.76,6.07,35.13,35.13,0,0,1,3.6,8.64,68.3,68.3,0,0,1,1.95,9.95,115.94,115.94,0,0,1,.84,12.26m-5.5-7.72v.24a140.09,140.09,0,0,1-.44,18c-.21,2.44-.43,4.48-.61,5.9-.09.71-.16,1.27-.22,1.65l-.06.44,0,.11v0h0c-10.69-.61-21.16-1.34-31.62-2.26m17.72,2.58c-5.84,0-11.78,0-17.78-.08h0s-.4-3.22-.62-8.07a109.93,109.93,0,0,1,.51-17.8,57.93,57.93,0,0,1,1.89-9.49,31.13,31.13,0,0,1,3.67-8.23,17.3,17.3,0,0,1,6-5.73,15,15,0,0,1,3.56-1.43M201.1,180.08q0-.37-.07-.75a87.1,87.1,0,0,1,.34-18.35,55.18,55.18,0,0,1,2.17-9.77,33.25,33.25,0,0,1,4.09-8.53,19.9,19.9,0,0,1,6.43-6.08,19.26,19.26,0,0,1,9.33-2.45,19.07,19.07,0,0,1,9.41,2,18.27,18.27,0,0,1,3.27,2.18m-16.26,1.11a17.56,17.56,0,0,1,4.45-.48,16.28,16.28,0,0,1,8.39,2.28,18.35,18.35,0,0,1,5.79,5.82,34.42,34.42,0,0,1,3.72,8.08,64.27,64.27,0,0,1,2.17,9.05,111.91,111.91,0,0,1,1.45,16.41q0,.7,0,1.34m-5.27-10.82c0,4.59-.25,8.92-.51,12.42-.18,2.49-.39,4.57-.54,6-.08.73-.15,1.3-.19,1.69l-.06.45,0,.11v0h0c-12.18-.45-23.86-1-35.28-1.61h0s0-.42,0-1.18M220,187.45q-5.95-.23-12-.33h0s-.47-3.25-.85-8a120.75,120.75,0,0,1-.26-17.26,56,56,0,0,1,1.28-9,29.11,29.11,0,0,1,2.33-6.58m-5.71,37.16q0-.7-.06-1.45a129.4,129.4,0,0,1,.54-18,68.62,68.62,0,0,1,1.74-9.83,36.07,36.07,0,0,1,3.4-8.72,18.91,18.91,0,0,1,5.58-6.33,16,16,0,0,1,8.25-2.76,14.37,14.37,0,0,1,8.18,1.7,15.1,15.1,0,0,1,5.4,5.43l.21.35m-14.36-9.47a18.4,18.4,0,0,1,2.55-.06,16,16,0,0,1,8.38,2.63,19,19,0,0,1,5.72,6.31,37,37,0,0,1,3.57,8.8,71.61,71.61,0,0,1,2,10.07,136.13,136.13,0,0,1,.9,19c0,2.61-.15,4.8-.23,6.34,0,.77-.09,1.38-.12,1.79l0,.47v.15h0q-3.09.09-6.17.22M244.09,178c0,1.72,0,3.33-.07,4.79-.1,2.53-.27,4.63-.41,6.1-.07.73-.14,1.31-.19,1.71l-.06.45,0,.12v0h0c-12.2-.31-24.82-.79-37.47-1.33h0s-.52-3.33-.88-8.32c-.14-2-.26-4.29-.3-6.73m-3.14,9.52c-.1-1.35-.24-3.73-.32-6.76a135.32,135.32,0,0,1,.61-18,68.82,68.82,0,0,1,1.75-9.84A35.76,35.76,0,0,1,207,141a18.73,18.73,0,0,1,5.61-6.29,16,16,0,0,1,8.3-2.7,14.69,14.69,0,0,1,8.28,1.8,13.63,13.63,0,0,1,1.34.88m-19.12,5.12a16.48,16.48,0,0,1,8.71-2,16.16,16.16,0,0,1,8.7,2.61,19,19,0,0,1,5.87,6.5,37.54,37.54,0,0,1,3.61,9.23,75.49,75.49,0,0,1,1.9,10.75,161.17,161.17,0,0,1,.71,20.74c0,1.22-.06,2.35-.1,3.39m3.61-22.45c0,5.3-.36,10.35-.77,14.38-.27,2.62-.56,4.81-.78,6.35-.11.77-.21,1.37-.27,1.78l-.08.47,0,.12v0h0c-12.45.27-24.88.68-37.59,1.59m14.76-4.48q-6.93-.39-14-.66h0s-.5-3.32-.89-8.25a123,123,0,0,1-.21-18,62.44,62.44,0,0,1,1.36-9.54,31.93,31.93,0,0,1,3-8.31,19.25,19.25,0,0,1,2-3m-7.12,45.34c-.13-1.15-.26-2.52-.36-4.06a89.08,89.08,0,0,1,.46-17.58,54.11,54.11,0,0,1,2.08-9.4,31.13,31.13,0,0,1,3.92-8.17,18,18,0,0,1,6.2-5.7,17.38,17.38,0,0,1,9-2,17.78,17.78,0,0,1,9.05,2.65,19,19,0,0,1,4.6,4.14m-18.43-6.51a18.55,18.55,0,0,1,5.48-.75,16.36,16.36,0,0,1,8.54,2.25,17.28,17.28,0,0,1,5.7,5.83,30.78,30.78,0,0,1,3.38,8.13,54.71,54.71,0,0,1,1.59,9.16,93.75,93.75,0,0,1-.09,16.69c-.2,2.24-.44,4.09-.62,5.38-.09.65-.17,1.15-.23,1.5l-.07.4,0,.1v0h0q-4.39-.64-8.76-1.33m8.72-12.61c-.06,2-.17,3.86-.28,5.55-.18,2.57-.4,4.71-.57,6.21-.09.75-.16,1.34-.21,1.75l-.06.46,0,.12v0h0c-12.37,0-24.65.1-36.83.52h0s-.4-3.09-.55-7.63a85.44,85.44,0,0,1,.91-16.39l.08-.46"/><path id="path3837" class="cls-6" d="M230.12,117.23a13.12,13.12,0,0,1-2.83,4.73,12.32,12.32,0,0,1-8.78,3.95,12.08,12.08,0,0,1-8.81-3.57,12.43,12.43,0,0,1,.17-17.69,12.5,12.5,0,0,1,2.93-2.12m-1.85,14.73a12.36,12.36,0,0,1,3.46-7.75,12.57,12.57,0,0,1,9-3.8,13.62,13.62,0,0,1,9.34,3.66,13.29,13.29,0,0,1,4.27,8.9,12.54,12.54,0,0,1-.79,5.28m1-5.22a12.91,12.91,0,0,1-2.1,2.94,12.68,12.68,0,0,1-9.08,3.93,13.65,13.65,0,0,1-13.69-12.63,12.6,12.6,0,0,1,2.86-9,11.43,11.43,0,0,1,1.25-1.27m-9.2,17.64a13.19,13.19,0,0,1,12.94-12,13.61,13.61,0,0,1,9.41,3.54,13.05,13.05,0,0,1,4.29,8.78,11.84,11.84,0,0,1-2.9,8.72,9.73,9.73,0,0,1-6.94,3.34m8.2-9.66a12.65,12.65,0,0,1-2.39,3.36,12,12,0,0,1-8.81,3.59,12.2,12.2,0,0,1-8.72-4,13.24,13.24,0,0,1-3.47-9.31,14.1,14.1,0,0,1,4-9.44,14.72,14.72,0,0,1,6.38-3.92m-8.2,11a12.68,12.68,0,0,1,3.1-4.6,13.19,13.19,0,0,1,8.78-3.64,11.47,11.47,0,0,1,8.45,3.28,10.6,10.6,0,0,1,3.08,8.29,11.23,11.23,0,0,1-4.45,8.12q-.45.34-.93.65m4.51-3.57a12.78,12.78,0,0,1-3.67,7.84,11.87,11.87,0,0,1-8.82,3.52,12.24,12.24,0,0,1-8.7-4.12,13.54,13.54,0,0,1-3.44-9.44,14.31,14.31,0,0,1,2.2-7.26m-3.49,6.88a12.18,12.18,0,0,1-.56-4A13,13,0,0,1,211,107a13.67,13.67,0,0,1,9-4,12.56,12.56,0,0,1,9,3.15,11.37,11.37,0,0,1,3.74,7.33M228.55,105l.49.45a12,12,0,0,1,3.53,8.66,13.61,13.61,0,0,1-12.21,13.35,10.86,10.86,0,0,1-8.41-2.72,9.88,9.88,0,0,1-3.18-7.88A10.27,10.27,0,0,1,211,111m21.73,15.26a12.43,12.43,0,0,1-3.36,5.23,11.74,11.74,0,0,1-8.84,3.14,12.08,12.08,0,0,1-8.48-4.5,14.16,14.16,0,0,1-3.11-9.84,16.3,16.3,0,0,1,4.41-10.12,18.43,18.43,0,0,1,8.45-5.19M210,114.26a13.49,13.49,0,0,1,3.22-5.3,12.3,12.3,0,0,1,8.91-3.74,12,12,0,0,1,8.72,3.93,13.09,13.09,0,0,1,3.42,9.28,14,14,0,0,1-4,9.38,14.56,14.56,0,0,1-3.46,2.62"/><path id="path3847" class="cls-3" d="M140.93,215.59c-.13-1.12-.26-2.36-.39-3.7a126.87,126.87,0,0,1-.21-21.91,69.86,69.86,0,0,1,1.91-11.58,36.57,36.57,0,0,1,4.08-10,19.21,19.21,0,0,1,6.85-6.82,17.37,17.37,0,0,1,10.14-2,18.42,18.42,0,0,1,7.82,2.37m-15.42-6.07a19.6,19.6,0,0,1,10.19-3,18.7,18.7,0,0,1,10.44,2.57,20.76,20.76,0,0,1,7,7.29,39,39,0,0,1,4.11,10.37A71.91,71.91,0,0,1,189.32,185a112.9,112.9,0,0,1,.18,14.39m-5-6,0,.31a129.17,129.17,0,0,1,.5,23.15c-.2,3.11-.46,5.68-.67,7.47-.11.9-.2,1.6-.26,2.08l-.08.55,0,.14v0h0c-13.42-.74-26.94-1.8-40.36-3m28.08-1.73c-7.57.06-15.24,0-23-.26h0s-.61-4.11-1.07-10.35a157.25,157.25,0,0,1-.12-23.09,83.79,83.79,0,0,1,1.83-12.47,43.46,43.46,0,0,1,4-10.94,22.27,22.27,0,0,1,6.77-7.83,17.67,17.67,0,0,1,4-2.07M140.6,209.23q0-.43,0-.88a151.49,151.49,0,0,1,.76-22.19,84.27,84.27,0,0,1,2.28-12.27A45.21,45.21,0,0,1,148,163a24.07,24.07,0,0,1,7.15-7.94,20.63,20.63,0,0,1,10.54-3.46,18.67,18.67,0,0,1,10.48,2.18,17.6,17.6,0,0,1,3.52,2.6M163,151.12a23.17,23.17,0,0,1,5.91-.67,20.11,20.11,0,0,1,10.84,3,22.41,22.41,0,0,1,7.22,7.81,42.39,42.39,0,0,1,4.29,11,80.9,80.9,0,0,1,2,12.75,157.46,157.46,0,0,1-.1,24.16q-.08,1.05-.16,2m-1.93-12.14a154.26,154.26,0,0,1-1,15.49c-.36,3.09-.75,5.66-1.05,7.45-.15.9-.28,1.6-.37,2.08l-.11.55,0,.14v0h0c-16.29-.86-32.71-2-49.66-3.6h0s-.11-.52-.29-1.45m20.66-2.39q-8,0-15.88-.17h0s-.74-4.09-1.31-10.32a147.6,147.6,0,0,1-.35-23.14,86.34,86.34,0,0,1,1.75-12.57,48.52,48.52,0,0,1,3-9.37m-13.75,43.46q0-.92,0-1.9a146,146,0,0,1,1.16-22.62,71,71,0,0,1,2.59-11.7,37.18,37.18,0,0,1,4.75-10,20.75,20.75,0,0,1,7.56-6.78,20.37,20.37,0,0,1,11.06-2,22.07,22.07,0,0,1,11.11,3.86,27.21,27.21,0,0,1,7.7,8.62l.31.53m-21.53-7.93a23.38,23.38,0,0,1,3.22-.17,19.64,19.64,0,0,1,10.52,3,22.22,22.22,0,0,1,7.06,7.62,41.93,41.93,0,0,1,4.24,10.69,78.05,78.05,0,0,1,2.05,12.19,139,139,0,0,1,.07,22.69c-.23,3.09-.51,5.66-.73,7.46-.11.9-.21,1.61-.28,2.09l-.08.55,0,.14v0h0l-8.28-.4M187,198.57c-.18,2.22-.38,4.3-.6,6.19-.36,3.26-.75,6-1,7.86-.15.95-.27,1.69-.36,2.2l-.1.58,0,.15v0h0c-16.19,0-32.26-.3-48.64-.4h0s-.77-4-1.47-10c-.28-2.39-.55-5.08-.77-8m5.2,12.5c-.13-1.79-.32-4.9-.44-8.77a163.29,163.29,0,0,1,.62-22.14,71.8,71.8,0,0,1,2.08-11.41,35,35,0,0,1,4.15-9.68,18.31,18.31,0,0,1,6.91-6.49,17.45,17.45,0,0,1,10.25-1.64,19.37,19.37,0,0,1,10.19,4.22,20.49,20.49,0,0,1,1.64,1.49M148,160.12a19.53,19.53,0,0,1,10.56-2.52,20.51,20.51,0,0,1,10.82,3.2,24.59,24.59,0,0,1,7.5,8A49.06,49.06,0,0,1,181.78,180a98.93,98.93,0,0,1,3,13A202.72,202.72,0,0,1,187,217.8c.05,1.44.09,2.79.12,4M186,196.13c.25,6.65.08,12.9-.18,17.84-.17,3.22-.38,5.89-.54,7.75-.08.93-.16,1.67-.21,2.16l-.06.57,0,.15v0h0c-14.66-.24-28.87-.77-42.62-1.14m18.34-12.07q-9.12-.69-18.22-1h0s-.75-4.19-1.37-10.32a146.16,146.16,0,0,1-.68-22.12,74.7,74.7,0,0,1,1.47-11.59,37.37,37.37,0,0,1,3.54-10,22.07,22.07,0,0,1,2.35-3.49M139.37,214c-.2-1.46-.42-3.19-.61-5.13a112.58,112.58,0,0,1-.08-22,65.92,65.92,0,0,1,2.19-11.59,36.38,36.38,0,0,1,4.46-10,20.2,20.2,0,0,1,7.28-6.81,19.13,19.13,0,0,1,10.69-2,19.94,19.94,0,0,1,10.58,3.84,22.34,22.34,0,0,1,5.19,5.56m-19.41-11.42a22.48,22.48,0,0,1,6.85-1,19.28,19.28,0,0,1,10.55,2.85,20.5,20.5,0,0,1,6.84,7.51,37.12,37.12,0,0,1,3.74,10.57,66.47,66.47,0,0,1,1.25,12.06,115.18,115.18,0,0,1-2,22.4c-.56,3-1.13,5.57-1.57,7.34-.22.88-.4,1.58-.52,2.05l-.15.54,0,.14v0h0l-12.33-.76m16.95-16.28c-.09,2.54-.22,4.91-.37,7-.23,3.25-.5,6-.72,7.85-.11.95-.2,1.69-.27,2.2l-.08.58,0,.15v0h0c-15.54,0-30.93,0-46.17.23h0s-.48-3.95-.64-9.78a112,112,0,0,1,1.26-21l.09-.5"/><path id="path3849" class="cls-6" d="M171.33,128.32a16.5,16.5,0,0,1-3.56,5.95,15.48,15.48,0,0,1-11,5,15.18,15.18,0,0,1-11.07-4.49,15.63,15.63,0,0,1,.21-22.23,15.71,15.71,0,0,1,3.69-2.66m-2.33,18.51a15.53,15.53,0,0,1,4.35-9.74,15.8,15.8,0,0,1,11.33-4.77,17.12,17.12,0,0,1,11.74,4.6A16.7,16.7,0,0,1,180,129.62a15.76,15.76,0,0,1-1,6.64m1.3-6.56a16.23,16.23,0,0,1-2.65,3.69,15.94,15.94,0,0,1-11.41,4.94,17.16,17.16,0,0,1-17.2-15.88,15.84,15.84,0,0,1,3.59-11.32,14.37,14.37,0,0,1,1.57-1.6M142.67,131.7a16.58,16.58,0,0,1,16.26-15.08,17.1,17.1,0,0,1,11.82,4.45,16.4,16.4,0,0,1,5.4,11,14.88,14.88,0,0,1-3.65,11,12.23,12.23,0,0,1-8.73,4.2m10.31-12.15a15.9,15.9,0,0,1-3,4.23A15.08,15.08,0,0,1,160,143.86a15.33,15.33,0,0,1-11-5,16.64,16.64,0,0,1-4.36-11.7,17.72,17.72,0,0,1,5-11.87,18.5,18.5,0,0,1,8-4.93m-10.31,13.84a15.94,15.94,0,0,1,3.89-5.78,16.58,16.58,0,0,1,11-4.58,14.42,14.42,0,0,1,10.62,4.13,13.32,13.32,0,0,1,3.88,10.42,14.12,14.12,0,0,1-5.59,10.21q-.56.43-1.17.82m5.67-4.48a16.07,16.07,0,0,1-4.61,9.85A14.92,14.92,0,0,1,160,149.19,15.39,15.39,0,0,1,149.06,144a17,17,0,0,1-4.33-11.87,18,18,0,0,1,2.76-9.13m-4.38,8.64a15.31,15.31,0,0,1-.7-5,16.32,16.32,0,0,1,4.89-11.16,17.19,17.19,0,0,1,11.36-5,15.79,15.79,0,0,1,11.31,4,14.29,14.29,0,0,1,4.71,9.21m-5.32-10.74q.32.27.62.56a15,15,0,0,1,4.44,10.89,17.1,17.1,0,0,1-15.34,16.78,13.65,13.65,0,0,1-10.57-3.42,12.41,12.41,0,0,1-4-9.9,12.91,12.91,0,0,1,2.78-7.29m27.32,19.18a15.63,15.63,0,0,1-4.23,6.58,14.76,14.76,0,0,1-11.11,3.94,15.18,15.18,0,0,1-10.66-5.66,17.79,17.79,0,0,1-3.91-12.37,20.48,20.48,0,0,1,5.54-12.72A23.16,23.16,0,0,1,160.85,113M146,124.58a17,17,0,0,1,4-6.66,15.46,15.46,0,0,1,11.2-4.7,15.07,15.07,0,0,1,11,4.94,16.45,16.45,0,0,1,4.3,11.66,17.57,17.57,0,0,1-5,11.79,18.3,18.3,0,0,1-4.35,3.29"/><path id="path2823" class="cls-2" d="M59.41,248.46c0,120.78,97.9,218.72,218.69,218.72V248.46Z"/><path id="path3851" class="cls-3" d="M138.44,313.3c-.15,3.86-.25,9.13-.06,15a124.43,124.43,0,0,0,1.91,19c1.21,6.33,3.13,12.32,6.19,17,6.08,9.29,8.7,14.69,9.84,17.76s.78,3.81.77,3.83h0l7.64.07m-14.11-22.29a61.58,61.58,0,0,1,3.93,7.59c1.23,3,.89,3.74.88,3.75h0c21-.15,42.87.18,65,.62m-23.24,6.07c15.85-.28,32.45-.63,49.32-1.22h0a29.24,29.24,0,0,1-4.86-5.73c-2.82-4.07-6.4-10.57-9.55-20.41m13.64,18.81c-3.27-5.35-7.15-13.66-10.23-26a180,180,0,0,1-5.2-31.82c-.24-3.78-.26-6.73-.22-8.73,0-1,.06-1.77.09-2.28,0-.26,0-.45,0-.59v-.2h0c-9,.13-17.86.3-26.63.58m18.46-7.86c0-.31,0-.57,0-.79s0-.47,0-.61,0-.12,0-.16v-.05h0c-30.2-.7-57.33-.82-83.21-1.88m22.3,6.85c-8.81.24-17.38.2-25.75-.06h0s-.31,2.43-.52,6.28a116,116,0,0,0,.15,14.76A78.32,78.32,0,0,0,138.25,338a41.71,41.71,0,0,0,5.49,11.49m-13.46-40.39a123,123,0,0,0-.52,12.3,90.08,90.08,0,0,0,2.08,19.07c1.45,6.28,3.77,12.16,7.27,16.71s6.08,8.08,8,10.89a61.39,61.39,0,0,1,3.85,6.33c1.51,3,1.23,3.69,1.22,3.71h0l5.3-.1m-4.82-15.85A54.62,54.62,0,0,1,156.9,370c1.28,3,.93,3.79.92,3.8h0c20.55.16,40.17,1.15,59.28,2.78m-16.77,1.25c17.4.32,34.24,0,50.84-.72h0s-2.93-2.29-6.82-8.15-8.8-15.31-12.78-29.84q-.92-3.35-1.68-6.51m12,24.3a84.93,84.93,0,0,1-7.2-18.72A138.72,138.72,0,0,1,230,306.94c-.11-3.71,0-6.6.11-8.56.06-1,.13-1.73.18-2.23,0-.25,0-.44.06-.57l0-.15v-.05h0c-9.81.36-19.51.83-29.15,1.52M222.37,298c-27.37.42-57,0-86.15-.5h0s0,.22-.09.64m15.56-6c-6.58.18-13.29.25-20.1.23h0s-.32,2.5-.62,6.48-.62,9.45-.59,15.41a104.78,104.78,0,0,0,1.55,18.49c1.14,6.05,3,11.7,6.13,16,3.58,5,6,8.79,7.66,11.63M128.59,306.8c-.11,3.75-.15,8.43.08,13.56a123.51,123.51,0,0,0,2.37,20c1.43,6.72,3.63,13.15,7,18.29s5.78,9.21,7.55,12.45a69.24,69.24,0,0,1,3.58,7.35c1.38,3.45,1.07,4.28,1.07,4.3h0q6.95.9,14,2m-12.36-15.94c.93,2,1.56,3.48,2,4.67,1.14,3.19.78,4,.78,4h0c22.25,1.09,44.87,2.11,66.76,4.5m-14.7-6.46c15.05-.41,29.78-.48,44.24-.43h0a36,36,0,0,1-6.73-7.28c-3.88-5.22-8.81-13.6-13.21-26.35m7.72,21.47a87.52,87.52,0,0,1-7.5-19.72,140.52,140.52,0,0,1-4.56-31.46c-.09-3.73,0-6.63.15-8.6.06-1,.14-1.74.19-2.25,0-.25,0-.45.07-.58l0-.15v-.05h0c-9.74.3-19.35.69-28.87,1.23m26.18-1.57c-28.38.6-57.66-1.32-86.68-4.58h0a115.24,115.24,0,0,0-1.22,14.18m-.7-13.21a166,166,0,0,0-.91,21.06A112.37,112.37,0,0,0,136.89,337c1.35,6.58,3.5,12.82,6.81,17.74,6.58,9.79,9.59,15.56,10.94,18.83s1,4.06,1,4.08h0q11,.83,22.06,1.95m-27-15.45A51.63,51.63,0,0,1,153,368.9c1.29,3,1,3.78,1,3.8h0c26.34,0,53.62-.73,82.09-1.93m-34,9.75c13.88-.3,27.73-.48,41.73-.66h0s-2.73-2.2-6.13-7.81a66.6,66.6,0,0,1-5.33-11.16,96.09,96.09,0,0,1-4.62-17.32c-.92-5.28-1.51-10.2-1.86-14.73m7.29,25.54c-1.12-3.23-2.21-6.82-3.23-10.82a196.8,196.8,0,0,1-5.57-32.83c-.3-3.93-.38-7-.38-9.09,0-1,0-1.85,0-2.39,0-.27,0-.47,0-.61s0-.12,0-.16v-.05h0c-15-.49-30-1.17-45-2.13m32,1.18c-25.76-1.23-50-.31-73.87.9h0a168.48,168.48,0,0,0-.1,23.35c.14,2.17.33,4.4.59,6.66m-2.82-21.67a159.09,159.09,0,0,0-.62,16.44A96.44,96.44,0,0,0,136,341.41c1.27,5.94,3.32,11.42,6.52,15.55s5.49,7.29,7.16,9.79a47.2,47.2,0,0,1,3.32,5.63c1.26,2.63.92,3.28.91,3.29h0q10.78-1.39,21.57-3.2M145.39,374c.53,1.07.93,2,1.24,2.74,1.21,3,.87,3.73.86,3.75h0c31.91-.27,65.54-.07,99.39-.25h0a13.52,13.52,0,0,1-1.14-1.09m-27.3-8.73c10.22.43,20.25.82,30.15,1.28h0a33.34,33.34,0,0,1-6.67-7.17,71.58,71.58,0,0,1-6.2-10.24,105.56,105.56,0,0,1-6.28-15.64A164.87,164.87,0,0,1,224.07,317m9,27.52-.26-.9a174,174,0,0,1-6.06-31.93c-.33-3.77-.43-6.69-.44-8.68,0-1,0-1.75,0-2.27,0-.26,0-.45,0-.58V300h0q-15.28.31-30.7.83m19.46,2.94c-25.37-.77-51-.57-76.35-.6h0a142.44,142.44,0,0,0-.9,15.28"/><path id="path3859" class="cls-3" d="M161.16,339.76q6.7,7.84,13.59,15.7c8.34-7.94,16.8-15.89,25.29-23.92m-35.46-.05q6.25,7,12.61,14.33c10.56-9.51,21.28-18.58,32.14-27.38m-42.18,18.3q7.58,8.46,15.07,16.9,13.31-12.47,26.48-25.14m-40.15,11.6,12.76,14.83c8.28-7.59,16.36-15.42,24.31-23.39m-49,1.41q8.38,9.52,16.93,19.11,15.53-13.93,31.54-27.78"/><path class="cls-1" d="M276.36,468.46C154.61,468.46,55.92,369.77,55.92,248S154.61,27.6,276.36,27.6"/><line class="cls-7" x1="55.92" y1="248.03" x2="278.1" y2="248.25"/><line class="cls-1" x1="276.36" x2="276.36" y2="496.06"/><line class="cls-1" x1="306.36" x2="306.36" y2="496.06"/></svg>